<?xml version="1.0" encoding="UTF-8" standalone="no"?><!DOCTYPE svg PUBLIC "-//W3C//DTD SVG 1.1//EN" "http://www.w3.org/Graphics/SVG/1.1/DTD/svg11.dtd"><svg width="100%" height="100%" viewBox="0 0 19 19" version="1.1" xmlns="http://www.w3.org/2000/svg" xmlns:xlink="http://www.w3.org/1999/xlink" xml:space="preserve" style="fill-rule:evenodd;clip-rule:evenodd;stroke-linejoin:round;stroke-miterlimit:1.41421;"><g id="controls-icon"><clipPath id="_clip1"><path d="M2.515,4.832l0.968,0c0.237,0.846 1.009,1.43 1.887,1.43c0.879,0 1.65,-0.584 1.888,-1.43l9.185,0c0.296,0 0.536,-0.24 0.536,-0.535c0,-0.296 -0.24,-0.536 -0.536,-0.536l-9.182,0c-0.238,-0.846 -1.009,-1.43 -1.887,-1.43c-0.879,0 -1.65,0.584 -1.888,1.43l-0.971,0c-0.296,0 -0.536,0.24 -0.536,0.536c0,0.295 0.24,0.535 0.536,0.535Zm2.857,-1.428c0.493,0 0.893,0.399 0.893,0.893c0,0.493 -0.4,0.892 -0.893,0.892c-0.493,0 -0.893,-0.399 -0.893,-0.892c0,-0.494 0.4,-0.893 0.893,-0.893Z"/></clipPath><g clip-path="url(#_clip1)"><rect x="0.193" y="0.545" width="18.571" height="7.503" style="fill:#f400ff;fill-rule:nonzero;"/></g><clipPath id="_clip2"><path d="M16.443,8.761l-5.135,0c-0.293,-0.755 -1.019,-1.253 -1.829,-1.253c-0.81,0 -1.536,0.498 -1.829,1.253l-5.135,0c-0.296,0 -0.536,0.24 -0.536,0.536c0,0.295 0.24,0.535 0.536,0.535l5.035,0c0.175,0.929 0.986,1.601 1.931,1.601c0.944,0 1.755,-0.672 1.93,-1.601l5.032,0c0.296,0 0.536,-0.24 0.536,-0.535c0,-0.296 -0.24,-0.536 -0.536,-0.536Zm-6.964,1.607c-0.493,0 -0.893,-0.4 -0.893,-0.893c0,-0.493 0.4,-0.893 0.893,-0.893c0.493,0 0.893,0.4 0.893,0.893c0,0.493 -0.4,0.893 -0.893,0.893Z"/></clipPath><g clip-path="url(#_clip2)"><rect x="0.193" y="5.722" width="18.571" height="7.497" style="fill:#f400ff;fill-rule:nonzero;"/></g><clipPath id="_clip3"><path d="M16.443,13.761l-0.968,0c-0.237,-0.846 -1.009,-1.43 -1.887,-1.43c-0.878,0 -1.65,0.584 -1.888,1.43l-9.185,0c-0.296,0 -0.536,0.24 -0.536,0.536c0,0.295 0.24,0.535 0.536,0.535l9.182,0c0.238,0.846 1.009,1.43 1.887,1.43c0.879,0 1.65,-0.584 1.888,-1.43l0.971,0c0.296,0 0.536,-0.24 0.536,-0.535c0,-0.296 -0.24,-0.536 -0.536,-0.536Zm-2.857,1.428c-0.493,0 -0.893,-0.399 -0.893,-0.892c0,-0.494 0.4,-0.893 0.893,-0.893c0.493,0 0.893,0.399 0.893,0.893c0,0.493 -0.4,0.892 -0.893,0.892Z"/></clipPath><g clip-path="url(#_clip3)"><rect x="0.193" y="10.545" width="18.571" height="7.503" style="fill:#f400ff;fill-rule:nonzero;"/></g></g></svg>