<?xml version="1.0" encoding="UTF-8" standalone="no"?>
<!DOCTYPE svg PUBLIC "-//W3C//DTD SVG 1.1//EN" "http://www.w3.org/Graphics/SVG/1.1/DTD/svg11.dtd">
<svg width="100%" height="100%" viewBox="0 0 19 14" version="1.1" xmlns="http://www.w3.org/2000/svg" xmlns:xlink="http://www.w3.org/1999/xlink" xml:space="preserve" style="fill-rule:evenodd;clip-rule:evenodd;stroke-linecap:round;stroke-linejoin:round;stroke-miterlimit:10;">
    <g transform="matrix(1,0,0,1,-5853.17,-1805.08)">
        <g transform="matrix(0.657792,0,0,0.771058,4909.76,1745.6)">
            <g id="dashboard-icon" transform="matrix(1,0,0,1,-9.12143,0)">
                <g transform="matrix(1.03555,0,0,0.883433,-4590.11,-1446.95)">
                    <path d="M5849.69,1725.2L5849.87,1725.21L5850.06,1725.24L5850.24,1725.27L5850.41,1725.31L5850.58,1725.36L5850.75,1725.42L5850.92,1725.48L5851.07,1725.55L5851.23,1725.63L5851.39,1725.72L5851.53,1725.82L5851.66,1725.91L5851.81,1726.02L5851.93,1726.13L5852.05,1726.24L5852.18,1726.38L5852.29,1726.51L5852.4,1726.65L5852.5,1726.79L5852.59,1726.92L5852.68,1727.08L5852.76,1727.23L5852.83,1727.38L5852.9,1727.56L5852.95,1727.73L5853,1727.91L5853.04,1728.09L5853.07,1728.26L5853.1,1728.44L5853.11,1728.61L5853.11,1728.76L5853.11,1741.01L5853.11,1741.15L5853.1,1741.33L5853.07,1741.5L5853.04,1741.68L5853,1741.85L5852.95,1742.03L5852.9,1742.21L5852.83,1742.38L5852.75,1742.54L5852.68,1742.69L5852.59,1742.83L5852.5,1742.97L5852.4,1743.12L5852.29,1743.26L5852.18,1743.38L5852.06,1743.52L5851.93,1743.64L5851.81,1743.74L5851.67,1743.85L5851.52,1743.95L5851.39,1744.04L5851.24,1744.13L5851.07,1744.21L5850.92,1744.28L5850.75,1744.35L5850.58,1744.41L5850.41,1744.45L5850.24,1744.5L5850.05,1744.53L5849.87,1744.55L5849.69,1744.56L5849.55,1744.57L5829.86,1744.57L5829.71,1744.56L5829.53,1744.55L5829.36,1744.53L5829.17,1744.5L5829,1744.45L5828.83,1744.41L5828.65,1744.35L5828.49,1744.28L5828.33,1744.21L5828.17,1744.13L5828.02,1744.04L5827.89,1743.95L5827.73,1743.85L5827.61,1743.75L5827.48,1743.64L5827.34,1743.51L5827.23,1743.38L5827.12,1743.26L5827.01,1743.12L5826.91,1742.99L5826.81,1742.83L5826.72,1742.67L5826.65,1742.54L5826.58,1742.38L5826.51,1742.21L5826.45,1742.03L5826.4,1741.85L5826.36,1741.68L5826.34,1741.52L5826.31,1741.33L5826.3,1741.13L5826.29,1741.01L5826.29,1728.76L5826.3,1728.63L5826.31,1728.44L5826.34,1728.24L5826.36,1728.09L5826.4,1727.91L5826.45,1727.73L5826.51,1727.56L5826.58,1727.38L5826.65,1727.23L5826.72,1727.1L5826.82,1726.92L5826.91,1726.78L5827.01,1726.65L5827.12,1726.51L5827.23,1726.38L5827.35,1726.25L5827.48,1726.13L5827.61,1726.02L5827.74,1725.91L5827.88,1725.82L5828.02,1725.72L5828.18,1725.63L5828.33,1725.55L5828.49,1725.48L5828.65,1725.42L5828.83,1725.36L5829,1725.31L5829.17,1725.27L5829.35,1725.24L5829.53,1725.21L5829.72,1725.2L5829.85,1725.2L5849.56,1725.2L5849.69,1725.2ZM5829.9,1728.13L5829.86,1728.13L5829.83,1728.14L5829.8,1728.14L5829.76,1728.15L5829.73,1728.15L5829.7,1728.16L5829.67,1728.17L5829.64,1728.18L5829.61,1728.2L5829.58,1728.21L5829.55,1728.23L5829.52,1728.25L5829.5,1728.27L5829.47,1728.29L5829.45,1728.31L5829.43,1728.33L5829.4,1728.35L5829.38,1728.38L5829.36,1728.4L5829.34,1728.43L5829.33,1728.45L5829.31,1728.48L5829.3,1728.51L5829.28,1728.54L5829.27,1728.57L5829.26,1728.6L5829.25,1728.63L5829.24,1728.67L5829.24,1728.7L5829.23,1728.73L5829.23,1728.77L5829.23,1728.8L5829.23,1740.96L5829.23,1741L5829.23,1741.03L5829.24,1741.07L5829.24,1741.1L5829.25,1741.13L5829.26,1741.16L5829.27,1741.19L5829.28,1741.22L5829.3,1741.25L5829.31,1741.28L5829.33,1741.31L5829.34,1741.34L5829.36,1741.36L5829.38,1741.39L5829.4,1741.41L5829.43,1741.43L5829.45,1741.46L5829.47,1741.48L5829.5,1741.5L5829.52,1741.52L5829.55,1741.53L5829.58,1741.55L5829.61,1741.57L5829.64,1741.58L5829.67,1741.59L5829.7,1741.6L5829.73,1741.61L5829.76,1741.62L5829.8,1741.62L5829.83,1741.63L5829.86,1741.63L5829.9,1741.63L5849.51,1741.63L5849.55,1741.63L5849.58,1741.63L5849.61,1741.62L5849.65,1741.62L5849.68,1741.61L5849.71,1741.6L5849.74,1741.59L5849.77,1741.58L5849.8,1741.57L5849.83,1741.55L5849.86,1741.53L5849.88,1741.52L5849.91,1741.5L5849.94,1741.48L5849.96,1741.46L5849.98,1741.43L5850.01,1741.41L5850.03,1741.39L5850.05,1741.36L5850.07,1741.34L5850.08,1741.31L5850.1,1741.28L5850.11,1741.25L5850.13,1741.22L5850.14,1741.19L5850.15,1741.16L5850.16,1741.13L5850.16,1741.1L5850.17,1741.07L5850.18,1741.03L5850.18,1741L5850.18,1740.96L5850.18,1728.8L5850.18,1728.77L5850.18,1728.73L5850.17,1728.7L5850.16,1728.67L5850.16,1728.63L5850.15,1728.6L5850.14,1728.57L5850.13,1728.54L5850.11,1728.51L5850.1,1728.48L5850.08,1728.45L5850.07,1728.43L5850.05,1728.4L5850.03,1728.38L5850.01,1728.35L5849.98,1728.33L5849.96,1728.31L5849.94,1728.29L5849.91,1728.27L5849.88,1728.25L5849.86,1728.23L5849.83,1728.21L5849.8,1728.2L5849.77,1728.18L5849.74,1728.17L5849.71,1728.16L5849.68,1728.15L5849.65,1728.15L5849.61,1728.14L5849.58,1728.14L5849.55,1728.13L5849.51,1728.13L5829.9,1728.13Z" style="fill:rgb(27,187,60);"/>
                </g>
                <g transform="matrix(1.87728,0,0,1.60151,-9513.71,-2691.82)">
                    <path d="M5838.27,1732.76L5849.83,1732.76" style="fill:none;stroke:rgb(27,187,60);stroke-width:1.62px;"/>
                </g>
                <g transform="matrix(1.52024,0,0,1.29692,-7420.08,-2163.4)">
                    <path d="M5835.72,1732.26L5835.72,1739.67" style="fill:none;stroke:rgb(27,187,60);stroke-width:2px;"/>
                </g>
            </g>
        </g>
    </g>
</svg>
