<?xml version="1.0" encoding="UTF-8" standalone="no"?><!DOCTYPE svg PUBLIC "-//W3C//DTD SVG 1.1//EN" "http://www.w3.org/Graphics/SVG/1.1/DTD/svg11.dtd"><svg width="100%" height="100%" viewBox="0 0 17 16" version="1.1" xmlns="http://www.w3.org/2000/svg" xmlns:xlink="http://www.w3.org/1999/xlink" xml:space="preserve" style="fill-rule:evenodd;clip-rule:evenodd;stroke-linejoin:round;stroke-miterlimit:1.41421;"><g id="detail-icon"><clipPath id="_clip1"><path d="M2.727,3.44l11.049,0c0.305,0 0.552,-0.247 0.552,-0.552c0,-0.305 -0.247,-0.553 -0.552,-0.553l-11.049,0c-0.305,0 -0.552,0.248 -0.552,0.553c0,0.305 0.247,0.552 0.552,0.552Z"/></clipPath><g clip-path="url(#_clip1)"><rect x="0.333" y="0.494" width="15.836" height="4.788" style="fill:#f400ff;fill-rule:nonzero;"/></g><clipPath id="_clip2"><path d="M2.727,6.018l6.997,0c0.305,0 0.553,-0.247 0.553,-0.552c0,-0.305 -0.248,-0.553 -0.553,-0.553l-6.997,0c-0.305,0 -0.552,0.248 -0.552,0.553c0,0.305 0.247,0.552 0.552,0.552Z"/></clipPath><g clip-path="url(#_clip2)"><rect x="0.333" y="3.072" width="11.785" height="4.788" style="fill:#f400ff;fill-rule:nonzero;"/></g><clipPath id="_clip3"><path d="M2.727,8.596l10.312,0c0.305,0 0.552,-0.247 0.552,-0.552c0,-0.305 -0.247,-0.553 -0.552,-0.553l-10.312,0c-0.305,0 -0.552,0.248 -0.552,0.553c0,0.305 0.247,0.552 0.552,0.552Z"/></clipPath><g clip-path="url(#_clip3)"><rect x="0.333" y="5.65" width="15.1" height="4.788" style="fill:#f400ff;fill-rule:nonzero;"/></g><clipPath id="_clip4"><path d="M2.727,11.174l9.207,0c0.305,0 0.553,-0.247 0.553,-0.552c0,-0.305 -0.248,-0.553 -0.553,-0.553l-9.207,0c-0.305,0 -0.552,0.248 -0.552,0.553c0,0.305 0.247,0.552 0.552,0.552Z"/></clipPath><g clip-path="url(#_clip4)"><rect x="0.333" y="8.228" width="13.995" height="4.788" style="fill:#f400ff;fill-rule:nonzero;"/></g><clipPath id="_clip5"><path d="M13.776,12.647l-11.049,0c-0.305,0 -0.552,0.248 -0.552,0.553c0,0.305 0.247,0.552 0.552,0.552l11.049,0c0.305,0 0.552,-0.247 0.552,-0.552c0,-0.305 -0.247,-0.553 -0.552,-0.553Z"/></clipPath><g clip-path="url(#_clip5)"><rect x="0.333" y="10.806" width="15.836" height="4.788" style="fill:#f400ff;fill-rule:nonzero;"/></g></g></svg>