<?xml version="1.0" encoding="UTF-8" standalone="no"?>
<!DOCTYPE svg PUBLIC "-//W3C//DTD SVG 1.1//EN" "http://www.w3.org/Graphics/SVG/1.1/DTD/svg11.dtd">
<svg width="100%" height="100%" viewBox="0 0 17 16" version="1.1" xmlns="http://www.w3.org/2000/svg" xmlns:xlink="http://www.w3.org/1999/xlink" xml:space="preserve" style="fill-rule:evenodd;clip-rule:evenodd;stroke-linejoin:round;stroke-miterlimit:1.41421;">
    <path d="M16.474,6.514L9.573,0.659C9.163,0.312 8.562,0.312 8.153,0.659L1.251,6.514C0.909,6.806 0.779,7.277 0.924,7.703C1.07,8.13 1.46,8.424 1.91,8.446L1.91,14.301C1.91,14.907 2.402,15.398 3.008,15.398L14.718,15.398C15.324,15.398 15.815,14.907 15.815,14.301L15.815,8.449C16.265,8.427 16.656,8.133 16.801,7.707C16.946,7.281 16.817,6.809 16.474,6.517L16.474,6.514ZM8.497,14.304L7.765,14.304L7.765,11.011L9.96,11.011L9.96,14.304L8.497,14.304ZM14.718,7.352L14.718,14.304L11.058,14.304L11.058,11.011C11.058,10.405 10.567,9.913 9.96,9.913L7.765,9.913C7.159,9.913 6.667,10.405 6.667,11.011L6.667,14.304L3.008,14.304L3.008,7.352L1.961,7.352L8.863,1.497L15.764,7.352L14.718,7.352Z" style="fill:rgb(163,251,170);"/>
</svg>
