<?xml version="1.0" encoding="UTF-8"?>
<svg width="16px" height="15px" viewBox="0 0 16 15" version="1.1" xmlns="http://www.w3.org/2000/svg" xmlns:xlink="http://www.w3.org/1999/xlink">
    <!-- Generator: Sketch 53.2 (72643) - https://sketchapp.com -->
    <title>List</title>
    <desc>Created with Sketch.</desc>
    <g id="Dash-Home-V2" stroke="none" stroke-width="1" fill="none" fill-rule="evenodd">
        <g id="dashboard-home" transform="translate(-157.000000, -223.000000)" fill="#FFFFFF">
            <g id="dash-container" transform="translate(130.000000, 117.000000)">
                <g id="left-nav">
                    <g id="List" transform="translate(27.000000, 106.000000)">
                        <path d="M0.80625,1.59375 L14.86875,1.59375 C15.2570752,1.59375 15.571875,1.27895021 15.571875,0.890625 C15.571875,0.502299785 15.2570752,0.1875 14.86875,0.1875 L0.80625,0.1875 C0.417924785,0.1875 0.103125,0.502299785 0.103125,0.890625 C0.103125,1.27895021 0.417924785,1.59375 0.80625,1.59375 Z" id="Shape"></path>
                        <path d="M0.80625,4.875 L9.7125,4.875 C10.1008252,4.875 10.415625,4.56020021 10.415625,4.171875 C10.415625,3.78354979 10.1008252,3.46875 9.7125,3.46875 L0.80625,3.46875 C0.417924785,3.46875 0.103125,3.78354979 0.103125,4.171875 C0.103125,4.56020021 0.417924785,4.875 0.80625,4.875 Z" id="Shape"></path>
                        <path d="M0.80625,8.15625 L13.93125,8.15625 C14.3195752,8.15625 14.634375,7.84145021 14.634375,7.453125 C14.634375,7.06479979 14.3195752,6.75 13.93125,6.75 L0.80625,6.75 C0.417924785,6.75 0.103125,7.06479979 0.103125,7.453125 C0.103125,7.84145021 0.417924785,8.15625 0.80625,8.15625 Z" id="Shape"></path>
                        <path d="M0.80625,11.4375 L12.525,11.4375 C12.9133252,11.4375 13.228125,11.1227002 13.228125,10.734375 C13.228125,10.3460498 12.9133252,10.03125 12.525,10.03125 L0.80625,10.03125 C0.417924785,10.03125 0.103125,10.3460498 0.103125,10.734375 C0.103125,11.1227002 0.417924785,11.4375 0.80625,11.4375 Z" id="Shape"></path>
                        <path d="M14.86875,13.3125 L0.80625,13.3125 C0.417924785,13.3125 0.103125,13.6272998 0.103125,14.015625 C0.103125,14.4039502 0.417924785,14.71875 0.80625,14.71875 L14.86875,14.71875 C15.2570752,14.71875 15.571875,14.4039502 15.571875,14.015625 C15.571875,13.6272998 15.2570752,13.3125 14.86875,13.3125 Z" id="Shape"></path>
                    </g>
                </g>
            </g>
        </g>
    </g>
</svg>