<?xml version="1.0" encoding="UTF-8" standalone="no"?><!DOCTYPE svg PUBLIC "-//W3C//DTD SVG 1.1//EN" "http://www.w3.org/Graphics/SVG/1.1/DTD/svg11.dtd"><svg width="100%" height="100%" viewBox="0 0 18 18" version="1.1" xmlns="http://www.w3.org/2000/svg" xmlns:xlink="http://www.w3.org/1999/xlink" xml:space="preserve" style="fill-rule:evenodd;clip-rule:evenodd;stroke-linejoin:round;stroke-miterlimit:1.41421;"><g id="rocket-icon"><clipPath id="_clip1"><path d="M10.204,6.169c-0.756,0.001 -1.411,0.526 -1.577,1.264c-0.165,0.738 0.203,1.493 0.887,1.816c0.684,0.324 1.501,0.13 1.966,-0.467c0.466,-0.596 0.456,-1.435 -0.024,-2.021c-0.307,-0.375 -0.767,-0.592 -1.252,-0.592Zm0.411,2.119c-0.202,0.167 -0.485,0.194 -0.716,0.071c-0.231,-0.124 -0.364,-0.374 -0.338,-0.635c0.026,-0.26 0.206,-0.48 0.457,-0.555c0.251,-0.076 0.522,0.007 0.688,0.21c0.224,0.277 0.182,0.684 -0.094,0.909l0.003,0Z"/></clipPath><g clip-path="url(#_clip1)"><rect x="6.97" y="4.552" width="6.47" height="6.47" style="fill:#f400ff;fill-rule:nonzero;"/></g><clipPath id="_clip2"><path d="M16.053,2.935c-0.016,-0.504 -0.415,-0.912 -0.919,-0.939l-0.385,0c-1.404,0 -4.894,0.23 -7.013,2.349c-0.367,0.369 -0.706,0.765 -1.016,1.184l-0.084,0.023l-3.859,1.316c-0.322,0.107 -0.565,0.374 -0.641,0.704c-0.076,0.331 0.026,0.677 0.269,0.914l2.064,2.067c-0.286,0.089 -0.549,0.241 -0.77,0.443c-0.479,0.563 -0.699,1.302 -0.605,2.035c-0.039,0.136 -0.097,0.267 -0.171,0.388c-0.175,0.27 -0.204,0.608 -0.079,0.904c0.125,0.296 0.388,0.511 0.703,0.574c0.098,0.02 0.198,0.029 0.298,0.029c0.289,-0.003 0.573,-0.08 0.824,-0.223c0.09,0.065 0.189,0.114 0.295,0.146c0.181,0.05 0.368,0.075 0.556,0.074c0.559,0.003 1.096,-0.219 1.491,-0.615c0.211,-0.212 0.369,-0.47 0.463,-0.753l2.048,2.047c0.237,0.244 0.584,0.345 0.915,0.267c0.331,-0.077 0.597,-0.322 0.702,-0.645l1.268,-3.804c0.441,-0.305 0.853,-0.648 1.233,-1.026c2.549,-2.568 2.419,-7.252 2.413,-7.459Zm-10.17,3.881c-0.468,0.848 -0.823,1.753 -1.055,2.692l-1.74,-1.721l2.795,-0.971Zm0.439,6.794c-0.213,0.212 -0.504,0.329 -0.805,0.323c-0.094,0.002 -0.187,-0.009 -0.278,-0.032c0,0 -0.029,-0.764 -0.21,-0.945c0,0 -0.583,0.971 -1.188,0.971c-0.035,0.003 -0.071,0.003 -0.106,0c0.199,-0.301 0.312,-0.652 0.323,-1.013c-0.061,-0.443 0.055,-0.893 0.324,-1.252c0.308,-0.219 0.679,-0.332 1.057,-0.323c0.326,-0.015 0.644,0.101 0.883,0.323c0,0 0.677,1.272 0,1.948Zm3.882,1.294l-1.869,-1.87c0.966,-0.152 1.905,-0.447 2.785,-0.877l-0.916,2.747Zm2.734,-5.208c-1.399,1.374 -3.225,2.231 -5.176,2.429l-0.353,-0.353c-0.063,-0.193 -0.14,-0.381 -0.233,-0.563c-0.044,-0.084 -0.101,-0.161 -0.168,-0.229c-0.253,-0.252 -0.567,-0.432 -0.912,-0.524l-0.391,-0.392c0.399,-1.905 1.343,-3.654 2.717,-5.033c0.782,-0.735 1.731,-1.267 2.766,-1.553c-0.03,0.914 0.293,1.805 0.902,2.488c0.66,0.601 1.531,0.917 2.423,0.88l0.026,0c-0.292,1.063 -0.835,2.041 -1.585,2.85l-0.016,0Zm1.853,-3.831c-0.85,0.062 -1.581,-0.145 -2.015,-0.582c-0.433,-0.437 -0.647,-1.187 -0.618,-2.051c0.852,-0.172 1.719,-0.261 2.588,-0.265c0.109,0.006 0.218,-0.006 0.324,-0.036c0.021,0.985 -0.073,1.968 -0.279,2.931l0,0.003Z"/></clipPath><g clip-path="url(#_clip2)"><rect x="0.493" y="0.379" width="17.18" height="17.133" style="fill:#f400ff;fill-rule:nonzero;"/></g></g></svg>