<?xml version="1.0" encoding="UTF-8"?>
<svg width="16px" height="17px" viewBox="0 0 16 17" version="1.1" xmlns="http://www.w3.org/2000/svg" xmlns:xlink="http://www.w3.org/1999/xlink">
    <!-- Generator: Sketch 53.2 (72643) - https://sketchapp.com -->
    <title>search-faded-grey-icon</title>
    <desc>Created with Sketch.</desc>
    <g id="Dash-Home-V2" stroke="none" stroke-width="1" fill="none" fill-rule="evenodd">
        <g id="dashboard-home" transform="translate(-279.000000, -474.000000)" fill="#C8C8C8">
            <g id="dash-container" transform="translate(130.000000, 117.000000)">
                <g id="guides-section" transform="translate(125.000000, 287.000000)">
                    <g id="search-input" transform="translate(9.000000, 61.000000)">
                        <g id="Search" transform="translate(15.000000, 9.000000)">
                            <path d="M15.7978571,15.6197619 L12.0578571,11.9 C14.6784028,9.26324771 14.7582548,5.03062448 12.2390276,2.29690602 C9.71980051,-0.43681244 5.49475762,-0.702308751 2.65313214,1.69454056 C-0.188493332,4.09138988 -0.639122518,8.30071394 1.63073204,11.2447727 C3.9005866,14.1888316 8.08608362,14.8237256 11.1269048,12.6852381 L14.9397619,16.4980952 C15.1789841,16.7210048 15.5517698,16.7144274 15.7829796,16.4832176 C16.0141893,16.2520079 16.0207667,15.8792222 15.7978571,15.64 L15.7978571,15.6197619 Z M1.50571429,7.04285714 C1.50571429,3.91324356 4.04276737,1.37619048 7.17238095,1.37619048 C10.3019945,1.37619048 12.8390476,3.91324356 12.8390476,7.04285714 C12.8390476,10.1724707 10.3019945,12.7095238 7.17238095,12.7095238 C4.04276737,12.7095238 1.50571429,10.1724707 1.50571429,7.04285714 Z" id="search-faded-grey-icon"></path>
                        </g>
                    </g>
                </g>
            </g>
        </g>
    </g>
</svg>