<?xml version="1.0" encoding="UTF-8"?>
<svg width="17px" height="17px" viewBox="0 0 17 17" version="1.1" xmlns="http://www.w3.org/2000/svg" xmlns:xlink="http://www.w3.org/1999/xlink">
    <!-- Generator: Sketch 53.2 (72643) - https://sketchapp.com -->
    <title>Settings-2</title>
    <desc>Created with Sketch.</desc>
    <g id="Dash-Home-V2" stroke="none" stroke-width="1" fill="none" fill-rule="evenodd">
        <g id="dashboard-home" transform="translate(-155.000000, -320.000000)" fill="#FFFFFF">
            <g id="dash-container" transform="translate(130.000000, 117.000000)">
                <g id="left-nav">
                    <g id="Settings-2" transform="translate(25.000000, 203.000000)">
                        <path d="M8.58311111,5.44 C6.91398387,5.44 5.56088889,6.79309498 5.56088889,8.46222222 C5.56088889,10.1313495 6.91398387,11.4844444 8.58311111,11.4844444 C10.2522384,11.4844444 11.6053333,10.1313495 11.6053333,8.46222222 C11.6053333,6.79309498 10.2522384,5.44 8.58311111,5.44 Z M8.58311111,10.3511111 C7.53990658,10.3511111 6.69422222,9.50542675 6.69422222,8.46222222 C6.69422222,7.41901769 7.53990658,6.57333333 8.58311111,6.57333333 C9.62631564,6.57333333 10.472,7.41901769 10.472,8.46222222 C10.472,9.50542675 9.62631564,10.3511111 8.58311111,10.3511111 L8.58311111,10.3511111 Z" id="Shape"></path>
                        <path d="M15.7608889,6.19555556 L14.5897778,6.19555556 C14.5419259,6.06711111 14.489037,5.94118519 14.4311111,5.81777778 L15.2584444,4.99044444 C15.700374,4.5479646 15.700374,3.83114652 15.2584444,3.38866667 L13.6566667,1.78688889 C13.2141868,1.34495934 12.4973687,1.34495934 12.0548889,1.78688889 L11.2275556,2.61422222 C11.1041481,2.55881481 10.9782222,2.50592593 10.8497778,2.45555556 L10.8497778,1.28444444 C10.8497778,0.658521728 10.3423672,0.151111111 9.71644444,0.151111111 L7.44977778,0.151111111 C6.82385506,0.151111111 6.31644444,0.658521728 6.31644444,1.28444444 L6.31644444,2.45555556 C6.188,2.50340741 6.06207407,2.5562963 5.93866667,2.61422222 L5.11133333,1.78688889 C4.66885348,1.34495934 3.9520354,1.34495934 3.50955556,1.78688889 L1.90777778,3.38866667 C1.46584823,3.83114652 1.46584823,4.5479646 1.90777778,4.99044444 L2.72755556,5.81777778 C2.67214815,5.94118519 2.61925926,6.06711111 2.56888889,6.19555556 L1.39777778,6.19555556 C0.771855061,6.19555556 0.264444444,6.70296617 0.264444444,7.32888889 L0.264444444,9.59555556 C0.264444444,10.2214783 0.771855061,10.7288889 1.39777778,10.7288889 L2.56888889,10.7288889 C2.61674074,10.8573333 2.66962963,10.9832593 2.72755556,11.1066667 L1.90022222,11.934 C1.45829267,12.3764798 1.45829267,13.0932979 1.90022222,13.5357778 L3.502,15.1375556 C3.94447985,15.5794851 4.66129793,15.5794851 5.10377778,15.1375556 L5.93111111,14.3102222 C6.05451852,14.3656296 6.18044444,14.4185185 6.30888889,14.4688889 L6.30888889,15.64 C6.30888889,16.2659227 6.81629951,16.7733333 7.44222222,16.7733333 L9.70888889,16.7733333 C10.3348116,16.7733333 10.8422222,16.2659227 10.8422222,15.64 L10.8422222,14.4688889 C10.9706667,14.421037 11.0965926,14.3681481 11.22,14.3102222 L12.0473333,15.1375556 C12.4898132,15.5794851 13.2066313,15.5794851 13.6491111,15.1375556 L15.2508889,13.5357778 C15.6928184,13.0932979 15.6928184,12.3764798 15.2508889,11.934 L14.4386667,11.1066667 C14.4940741,10.9832593 14.546963,10.8573333 14.5973333,10.7288889 L15.7684444,10.7288889 C16.3943672,10.7288889 16.9017778,10.2214783 16.9017778,9.59555556 L16.9017778,7.32888889 C16.9017845,7.02699653 16.7813435,6.7375778 16.5671653,6.52481804 C16.3529871,6.31205828 16.0627745,6.19354294 15.7608889,6.19555556 Z M15.7608889,9.59555556 L13.7473333,9.59555556 C13.6131605,10.2051512 13.3713773,10.7859425 13.0333333,11.3106667 L14.4575556,12.7348889 L12.8557778,14.3366667 L11.4164444,12.9124444 C10.8917203,13.2504884 10.3109289,13.4922716 9.70133333,13.6264444 L9.70133333,15.64 L7.43466667,15.64 L7.43466667,13.6264444 C6.82507105,13.4922716 6.24427973,13.2504884 5.71955556,12.9124444 L4.29533333,14.3366667 L2.69355556,12.7348889 L4.11777778,11.3106667 C3.77973382,10.7859425 3.53795065,10.2051512 3.40377778,9.59555556 L1.40533333,9.59555556 L1.40533333,7.32888889 L3.41888889,7.32888889 C3.55306176,6.71929327 3.79484493,6.13850195 4.13288889,5.61377778 L2.70866667,4.18955556 L4.31044444,2.58777778 L5.73466667,4.012 C6.25939084,3.67395604 6.84018216,3.43217287 7.44977778,3.298 L7.44977778,1.28444444 L9.71644444,1.28444444 L9.71644444,3.298 C10.3260401,3.43217287 10.9068314,3.67395604 11.4315556,4.012 L12.8557778,2.58777778 L14.4575556,4.18955556 L13.0333333,5.61377778 C13.3713773,6.13850195 13.6131605,6.71929327 13.7473333,7.32888889 L15.7608889,7.32888889 L15.7608889,9.59555556 Z" id="Shape"></path>
                    </g>
                </g>
            </g>
        </g>
    </g>
</svg>