<?xml version="1.0" encoding="UTF-8" standalone="no"?><!DOCTYPE svg PUBLIC "-//W3C//DTD SVG 1.1//EN" "http://www.w3.org/Graphics/SVG/1.1/DTD/svg11.dtd"><svg width="100%" height="100%" viewBox="0 0 157 37" version="1.1" xmlns="http://www.w3.org/2000/svg" xmlns:xlink="http://www.w3.org/1999/xlink" xml:space="preserve" style="fill-rule:evenodd;clip-rule:evenodd;stroke-linejoin:round;stroke-miterlimit:1.41421;"><g id="logo"><g transform="matrix(1.82799,0,0,1.82799,-3326.7,-41.9533)"><text x="1839.08px" y="35.789px" style="font-family:'Montserrat-Regular', 'Montserrat';font-size:8px;fill:#c3b7c8;">SP<tspan x="1849.29px " y="35.789px ">A</tspan>CE</text><text x="1866.35px" y="35.789px" style="font-family:'Montserrat-Medium', 'Montserrat';font-weight:500;font-size:8px;fill:#b400ff;">KERNEL</text></g><clipPath id="_clip1"><path d="M31.458,9.296c-0.841,-0.841 -2.337,-0.597 -4.488,0.68c-3.187,-1.559 -7.009,-0.95 -9.553,1.522c-2.544,2.473 -3.262,6.276 -1.794,9.505c-1.815,2.74 -2.277,4.589 -1.378,5.493c0.351,0.326 0.82,0.494 1.298,0.466c1.038,0 2.333,-0.554 3.392,-1.126c0.332,-0.18 0.672,-0.386 1.017,-0.601c3.214,1.366 6.937,0.601 9.353,-1.92c2.417,-2.52 3.023,-6.273 1.522,-9.426c1.097,-2.03 1.471,-3.753 0.631,-4.593Zm-0.891,0.891c0.122,0.121 0.244,0.815 -0.496,2.408c-0.519,-0.717 -1.147,-1.348 -1.862,-1.87c1.471,-0.778 2.177,-0.715 2.354,-0.538l0.004,0Zm-7.3,0.18c1.045,0.001 2.077,0.232 3.022,0.677c0.111,0.266 0.394,0.417 0.676,0.361c1.001,0.607 1.838,1.45 2.438,2.454c-1.316,2.166 -2.897,4.16 -4.707,5.934c-1.471,1.489 -3.084,2.832 -4.816,4.009c-2.897,-1.545 -4.368,-4.866 -3.565,-8.05c0.803,-3.184 3.673,-5.411 6.957,-5.397l-0.005,0.012Zm-4.921,14.36c-1.924,1.042 -2.983,1.092 -3.198,0.878c-0.214,-0.214 -0.109,-1.261 1.185,-3.362c0.625,0.907 1.42,1.684 2.341,2.286l-0.328,0.198Zm12.061,-7.216c-0.002,2.247 -1.06,4.362 -2.858,5.71c-1.797,1.348 -4.125,1.772 -6.282,1.144c1.537,-1.107 2.98,-2.338 4.316,-3.681c1.668,-1.653 3.161,-3.474 4.454,-5.434c0.244,0.729 0.369,1.493 0.37,2.261Z"/></clipPath><g clip-path="url(#_clip1)"><rect x="11.698" y="6.703" width="22.32" height="22.364" style="fill:#d9c9e0;fill-rule:nonzero;"/></g><path d="M138.754,0.821l0.228,0.004l0.228,0.008l0.226,0.01l0.227,0.013l0.225,0.015l0.224,0.019l0.224,0.021l0.223,0.024l0.222,0.027l0.221,0.03l0.221,0.032l0.219,0.035l0.219,0.038l0.218,0.04l0.216,0.043l0.216,0.046l0.215,0.048l0.214,0.051l0.213,0.053l0.211,0.056l0.211,0.059l0.21,0.061l0.208,0.063l0.208,0.066l0.206,0.069l0.206,0.071l0.204,0.073l0.203,0.076l0.202,0.078l0.2,0.081l0.2,0.082l0.198,0.086l0.197,0.087l0.195,0.09l0.195,0.093l0.193,0.094l0.192,0.097l0.19,0.099l0.189,0.101l0.188,0.104l0.186,0.105l0.185,0.108l0.183,0.11l0.182,0.112l0.181,0.115l0.179,0.116l0.177,0.119l0.177,0.12l0.174,0.123l0.173,0.124l0.172,0.127l0.169,0.129l0.169,0.13l0.166,0.133l0.165,0.134l0.164,0.137l0.161,0.138l0.16,0.14l0.158,0.143l0.157,0.144l0.155,0.146l0.153,0.147l0.151,0.15l0.15,0.151l0.147,0.153l0.146,0.155l0.144,0.156l0.142,0.159l0.141,0.16l0.138,0.161l0.137,0.164l0.134,0.165l0.133,0.166l0.13,0.169l0.129,0.169l0.127,0.172l0.124,0.173l0.123,0.174l0.12,0.176l0.119,0.178l0.116,0.179l0.115,0.181l0.112,0.182l0.11,0.183l0.108,0.185l0.105,0.186l0.104,0.188l0.101,0.189l0.099,0.19l0.097,0.192l0.094,0.193l0.093,0.195l0.09,0.195l0.087,0.197l0.085,0.198l0.083,0.2l0.081,0.2l0.078,0.202l0.076,0.203l0.073,0.204l0.071,0.206l0.069,0.206l0.066,0.207l0.063,0.209l0.061,0.21l0.059,0.211l0.056,0.211l0.053,0.213l0.051,0.214l0.048,0.215l0.046,0.216l0.043,0.216l0.04,0.218l0.038,0.219l0.035,0.219l0.032,0.221l0.03,0.221l0.027,0.222l0.024,0.223l0.021,0.224l0.019,0.224l0.015,0.225l0.013,0.226l0.01,0.227l0.008,0.228l0.004,0.228l0.001,0.229l-0.001,0.229l-0.004,0.228l-0.008,0.228l-0.01,0.227l-0.013,0.226l-0.015,0.225l-0.019,0.225l-0.021,0.223l-0.024,0.223l-0.027,0.222l-0.03,0.222l-0.032,0.22l-0.035,0.219l-0.038,0.219l-0.04,0.218l-0.043,0.216l-0.046,0.216l-0.048,0.215l-0.051,0.214l-0.053,0.213l-0.056,0.212l-0.059,0.21l-0.061,0.21l-0.063,0.209l-0.066,0.207l-0.069,0.207l-0.071,0.205l-0.073,0.204l-0.076,0.203l-0.078,0.202l-0.081,0.2l-0.083,0.2l-0.085,0.198l-0.087,0.197l-0.09,0.196l-0.093,0.194l-0.094,0.193l-0.097,0.192l-0.099,0.19l-0.101,0.189l-0.104,0.188l-0.105,0.186l-0.108,0.185l-0.11,0.183l-0.112,0.182l-0.115,0.181l-0.116,0.179l-0.119,0.178l-0.12,0.176l-0.123,0.174l-0.124,0.173l-0.127,0.172l-0.129,0.169l-0.13,0.169l-0.133,0.166l-0.134,0.165l-0.137,0.164l-0.138,0.161l-0.141,0.16l-0.142,0.159l-0.144,0.156l-0.146,0.155l-0.147,0.153l-0.15,0.151l-0.151,0.15l-0.153,0.148l-0.155,0.145l-0.157,0.144l-0.158,0.143l-0.16,0.14l-0.161,0.138l-0.164,0.137l-0.165,0.134l-0.166,0.133l-0.169,0.13l-0.169,0.129l-0.172,0.127l-0.173,0.124l-0.174,0.123l-0.177,0.121l-0.177,0.118l-0.179,0.116l-0.181,0.115l-0.182,0.112l-0.183,0.11l-0.185,0.108l-0.186,0.105l-0.188,0.104l-0.189,0.101l-0.19,0.099l-0.192,0.097l-0.193,0.094l-0.195,0.093l-0.195,0.09l-0.197,0.087l-0.198,0.086l-0.2,0.083l-0.2,0.08l-0.202,0.078l-0.203,0.076l-0.204,0.074l-0.206,0.07l-0.206,0.069l-0.208,0.066l-0.208,0.064l-0.21,0.061l-0.211,0.058l-0.211,0.056l-0.213,0.053l-0.214,0.051l-0.215,0.048l-0.216,0.046l-0.216,0.043l-0.218,0.04l-0.219,0.038l-0.219,0.035l-0.221,0.032l-0.221,0.03l-0.222,0.027l-0.223,0.024l-0.224,0.021l-0.224,0.019l-0.225,0.015l-0.227,0.013l-0.226,0.01l-0.228,0.008l-0.228,0.004l-0.229,0.001l-117.292,0l-0.229,-0.001l-0.228,-0.004l-0.228,-0.008l-0.226,-0.01l-0.227,-0.013l-0.225,-0.015l-0.224,-0.019l-0.224,-0.021l-0.223,-0.024l-0.222,-0.027l-0.221,-0.03l-0.221,-0.032l-0.219,-0.035l-0.219,-0.038l-0.218,-0.04l-0.216,-0.043l-0.216,-0.046l-0.215,-0.048l-0.214,-0.051l-0.213,-0.053l-0.211,-0.056l-0.211,-0.058l-0.21,-0.061l-0.208,-0.064l-0.208,-0.066l-0.206,-0.069l-0.206,-0.07l-0.204,-0.074l-0.203,-0.076l-0.202,-0.078l-0.2,-0.08l-0.2,-0.083l-0.198,-0.086l-0.197,-0.087l-0.195,-0.09l-0.195,-0.093l-0.193,-0.094l-0.192,-0.097l-0.19,-0.099l-0.189,-0.101l-0.188,-0.104l-0.186,-0.105l-0.185,-0.108l-0.183,-0.11l-0.182,-0.112l-0.181,-0.115l-0.179,-0.116l-0.177,-0.118l-0.177,-0.121l-0.174,-0.123l-0.173,-0.124l-0.171,-0.127l-0.17,-0.129l-0.169,-0.13l-0.166,-0.133l-0.165,-0.134l-0.164,-0.137l-0.161,-0.138l-0.16,-0.14l-0.158,-0.143l-0.157,-0.144l-0.155,-0.145l-0.153,-0.148l-0.151,-0.15l-0.15,-0.151l-0.147,-0.153l-0.146,-0.155l-0.144,-0.156l-0.142,-0.159l-0.141,-0.16l-0.138,-0.161l-0.137,-0.164l-0.134,-0.165l-0.133,-0.166l-0.13,-0.169l-0.129,-0.169l-0.127,-0.172l-0.124,-0.173l-0.123,-0.174l-0.12,-0.176l-0.119,-0.178l-0.116,-0.179l-0.114,-0.181l-0.113,-0.182l-0.11,-0.183l-0.107,-0.185l-0.106,-0.186l-0.104,-0.188l-0.101,-0.189l-0.099,-0.19l-0.097,-0.192l-0.094,-0.193l-0.093,-0.194l-0.089,-0.196l-0.088,-0.197l-0.085,-0.198l-0.083,-0.2l-0.081,-0.2l-0.078,-0.202l-0.076,-0.203l-0.073,-0.204l-0.071,-0.205l-0.069,-0.207l-0.066,-0.207l-0.063,-0.209l-0.061,-0.21l-0.059,-0.21l-0.056,-0.212l-0.053,-0.213l-0.051,-0.214l-0.048,-0.215l-0.046,-0.216l-0.043,-0.216l-0.04,-0.218l-0.038,-0.219l-0.035,-0.219l-0.032,-0.22l-0.03,-0.222l-0.027,-0.222l-0.024,-0.223l-0.021,-0.223l-0.019,-0.225l-0.015,-0.225l-0.013,-0.226l-0.01,-0.227l-0.008,-0.228l-0.004,-0.228l-0.001,-0.229l0.001,-0.229l0.004,-0.228l0.008,-0.228l0.01,-0.227l0.013,-0.226l0.015,-0.225l0.019,-0.224l0.021,-0.224l0.024,-0.223l0.027,-0.222l0.03,-0.221l0.032,-0.221l0.035,-0.219l0.038,-0.219l0.04,-0.218l0.043,-0.216l0.046,-0.216l0.048,-0.215l0.051,-0.214l0.053,-0.213l0.056,-0.211l0.059,-0.211l0.061,-0.21l0.063,-0.209l0.066,-0.207l0.069,-0.206l0.071,-0.206l0.073,-0.204l0.076,-0.203l0.078,-0.202l0.081,-0.2l0.083,-0.2l0.085,-0.198l0.088,-0.197l0.089,-0.195l0.093,-0.195l0.094,-0.193l0.097,-0.192l0.099,-0.19l0.101,-0.189l0.104,-0.188l0.106,-0.186l0.107,-0.185l0.11,-0.183l0.113,-0.182l0.114,-0.181l0.116,-0.179l0.119,-0.178l0.12,-0.176l0.123,-0.174l0.124,-0.173l0.127,-0.172l0.129,-0.169l0.13,-0.169l0.133,-0.166l0.134,-0.165l0.137,-0.164l0.138,-0.161l0.141,-0.16l0.142,-0.159l0.144,-0.156l0.146,-0.155l0.147,-0.153l0.15,-0.151l0.151,-0.15l0.153,-0.147l0.155,-0.146l0.157,-0.144l0.158,-0.143l0.16,-0.14l0.161,-0.138l0.164,-0.137l0.165,-0.134l0.166,-0.133l0.169,-0.13l0.17,-0.129l0.171,-0.127l0.173,-0.124l0.174,-0.123l0.177,-0.12l0.177,-0.119l0.179,-0.116l0.181,-0.115l0.182,-0.112l0.183,-0.11l0.185,-0.108l0.186,-0.105l0.188,-0.104l0.189,-0.101l0.19,-0.099l0.192,-0.097l0.193,-0.094l0.195,-0.093l0.195,-0.09l0.197,-0.087l0.198,-0.086l0.2,-0.082l0.2,-0.081l0.202,-0.078l0.203,-0.076l0.204,-0.073l0.206,-0.071l0.206,-0.069l0.208,-0.066l0.208,-0.063l0.21,-0.061l0.211,-0.059l0.211,-0.056l0.213,-0.053l0.214,-0.051l0.215,-0.048l0.216,-0.046l0.216,-0.043l0.218,-0.04l0.219,-0.038l0.219,-0.035l0.221,-0.032l0.221,-0.03l0.222,-0.027l0.223,-0.024l0.224,-0.021l0.224,-0.019l0.225,-0.015l0.227,-0.013l0.226,-0.01l0.228,-0.008l0.228,-0.004l0.229,-0.001l117.292,0l0.229,0.001Zm-117.516,1.499l-0.215,0.001l-0.209,0.004l-0.209,0.007l-0.207,0.009l-0.207,0.012l-0.207,0.014l-0.206,0.017l-0.204,0.02l-0.204,0.022l-0.204,0.024l-0.202,0.027l-0.202,0.03l-0.201,0.032l-0.2,0.034l-0.199,0.037l-0.198,0.039l-0.198,0.042l-0.196,0.044l-0.196,0.047l-0.194,0.049l-0.194,0.051l-0.193,0.053l-0.192,0.056l-0.191,0.058l-0.189,0.061l-0.189,0.062l-0.188,0.065l-0.187,0.067l-0.185,0.07l-0.185,0.071l-0.183,0.074l-0.183,0.076l-0.181,0.078l-0.18,0.08l-0.179,0.082l-0.178,0.085l-0.177,0.086l-0.176,0.089l-0.174,0.091l-0.173,0.092l-0.171,0.095l-0.171,0.097l-0.169,0.098l-0.168,0.101l-0.167,0.103l-0.165,0.104l-0.164,0.107l-0.163,0.108l-0.161,0.111l-0.159,0.112l-0.159,0.114l-0.157,0.116l-0.155,0.118l-0.155,0.119l-0.152,0.122l-0.151,0.123l-0.15,0.125l-0.148,0.127l-0.147,0.128l-0.144,0.131l-0.144,0.132l-0.142,0.133l-0.14,0.135l-0.138,0.137l-0.138,0.139l-0.135,0.14l-0.133,0.142l-0.132,0.143l-0.13,0.145l-0.129,0.147l-0.127,0.148l-0.125,0.15l-0.123,0.151l-0.121,0.152l-0.12,0.154l-0.118,0.156l-0.116,0.157l-0.114,0.158l-0.112,0.16l-0.11,0.161l-0.109,0.163l-0.107,0.164l-0.104,0.165l-0.103,0.167l-0.101,0.168l-0.098,0.169l-0.097,0.171l-0.095,0.171l-0.092,0.173l-0.091,0.174l-0.089,0.176l-0.086,0.177l-0.084,0.177l-0.083,0.179l-0.08,0.181l-0.078,0.181l-0.076,0.182l-0.074,0.184l-0.071,0.185l-0.07,0.185l-0.067,0.187l-0.065,0.188l-0.062,0.188l-0.061,0.19l-0.058,0.191l-0.056,0.192l-0.053,0.193l-0.051,0.193l-0.049,0.195l-0.047,0.196l-0.044,0.196l-0.042,0.198l-0.039,0.198l-0.037,0.199l-0.034,0.2l-0.032,0.201l-0.03,0.201l-0.027,0.203l-0.024,0.204l-0.022,0.204l-0.02,0.204l-0.017,0.206l-0.014,0.206l-0.012,0.208l-0.009,0.207l-0.007,0.209l-0.004,0.209l-0.001,0.21l0.001,0.21l0.004,0.209l0.007,0.209l0.009,0.207l0.012,0.208l0.014,0.206l0.017,0.206l0.02,0.204l0.022,0.205l0.024,0.203l0.027,0.203l0.03,0.201l0.032,0.201l0.034,0.2l0.037,0.199l0.039,0.198l0.042,0.198l0.044,0.196l0.047,0.196l0.049,0.195l0.051,0.193l0.053,0.193l0.056,0.192l0.058,0.191l0.061,0.19l0.062,0.188l0.065,0.188l0.067,0.187l0.07,0.185l0.071,0.185l0.074,0.184l0.076,0.182l0.078,0.181l0.08,0.181l0.083,0.179l0.084,0.177l0.086,0.177l0.089,0.176l0.091,0.174l0.092,0.173l0.095,0.171l0.097,0.171l0.098,0.169l0.101,0.168l0.103,0.167l0.104,0.165l0.107,0.164l0.109,0.163l0.11,0.161l0.112,0.16l0.114,0.158l0.116,0.157l0.118,0.156l0.12,0.154l0.121,0.152l0.123,0.151l0.125,0.15l0.127,0.148l0.129,0.147l0.13,0.145l0.132,0.143l0.133,0.142l0.135,0.14l0.138,0.139l0.138,0.137l0.14,0.135l0.142,0.133l0.144,0.133l0.144,0.13l0.147,0.128l0.148,0.127l0.15,0.125l0.151,0.123l0.152,0.122l0.155,0.119l0.155,0.118l0.157,0.116l0.159,0.114l0.159,0.112l0.161,0.111l0.163,0.108l0.164,0.107l0.165,0.104l0.167,0.103l0.168,0.101l0.169,0.098l0.171,0.097l0.171,0.095l0.173,0.093l0.174,0.09l0.176,0.089l0.177,0.086l0.178,0.085l0.179,0.082l0.18,0.08l0.181,0.078l0.182,0.076l0.184,0.074l0.185,0.071l0.185,0.07l0.187,0.067l0.188,0.065l0.189,0.062l0.189,0.061l0.191,0.058l0.192,0.056l0.193,0.053l0.194,0.051l0.194,0.049l0.196,0.047l0.196,0.044l0.198,0.042l0.198,0.039l0.199,0.037l0.2,0.034l0.201,0.032l0.202,0.03l0.202,0.027l0.204,0.024l0.204,0.023l0.204,0.019l0.206,0.017l0.207,0.014l0.207,0.012l0.207,0.01l0.209,0.006l0.209,0.004l0.215,0.001l117.282,0l0.215,-0.001l0.209,-0.004l0.209,-0.006l0.207,-0.01l0.208,-0.012l0.206,-0.014l0.206,-0.017l0.204,-0.019l0.204,-0.023l0.204,-0.024l0.202,-0.027l0.202,-0.03l0.201,-0.032l0.2,-0.034l0.199,-0.037l0.198,-0.039l0.198,-0.042l0.196,-0.044l0.196,-0.047l0.195,-0.049l0.193,-0.051l0.193,-0.053l0.192,-0.056l0.191,-0.058l0.189,-0.061l0.189,-0.062l0.188,-0.065l0.187,-0.067l0.185,-0.07l0.185,-0.071l0.184,-0.074l0.182,-0.076l0.181,-0.078l0.18,-0.08l0.179,-0.082l0.178,-0.085l0.177,-0.086l0.175,-0.089l0.174,-0.09l0.174,-0.093l0.171,-0.095l0.171,-0.097l0.169,-0.098l0.168,-0.101l0.167,-0.103l0.165,-0.104l0.164,-0.107l0.162,-0.108l0.162,-0.111l0.16,-0.112l0.158,-0.114l0.157,-0.116l0.155,-0.118l0.155,-0.12l0.152,-0.121l0.151,-0.123l0.15,-0.125l0.148,-0.127l0.147,-0.128l0.144,-0.13l0.144,-0.133l0.142,-0.133l0.14,-0.135l0.139,-0.137l0.137,-0.139l0.135,-0.14l0.133,-0.142l0.132,-0.143l0.131,-0.145l0.128,-0.147l0.127,-0.148l0.125,-0.15l0.123,-0.151l0.121,-0.152l0.12,-0.154l0.118,-0.156l0.116,-0.157l0.114,-0.158l0.112,-0.16l0.111,-0.161l0.108,-0.163l0.107,-0.164l0.104,-0.165l0.103,-0.167l0.1,-0.167l0.099,-0.17l0.097,-0.171l0.095,-0.171l0.092,-0.173l0.091,-0.174l0.089,-0.176l0.086,-0.176l0.085,-0.178l0.082,-0.18l0.08,-0.18l0.078,-0.181l0.076,-0.182l0.074,-0.184l0.071,-0.185l0.07,-0.185l0.067,-0.187l0.065,-0.187l0.062,-0.19l0.061,-0.189l0.058,-0.191l0.056,-0.192l0.053,-0.193l0.051,-0.193l0.049,-0.195l0.047,-0.196l0.044,-0.196l0.041,-0.197l0.04,-0.199l0.037,-0.199l0.034,-0.2l0.032,-0.201l0.03,-0.202l0.027,-0.202l0.024,-0.203l0.022,-0.205l0.02,-0.204l0.017,-0.206l0.014,-0.206l0.012,-0.207l0.009,-0.208l0.007,-0.209l0.004,-0.209l0.001,-0.21l-0.001,-0.21l-0.004,-0.209l-0.007,-0.209l-0.009,-0.208l-0.012,-0.207l-0.014,-0.206l-0.017,-0.206l-0.02,-0.204l-0.022,-0.204l-0.024,-0.204l-0.027,-0.202l-0.03,-0.202l-0.032,-0.201l-0.034,-0.2l-0.037,-0.199l-0.04,-0.199l-0.041,-0.197l-0.044,-0.196l-0.047,-0.196l-0.049,-0.195l-0.051,-0.193l-0.053,-0.193l-0.056,-0.192l-0.058,-0.191l-0.061,-0.189l-0.062,-0.189l-0.065,-0.188l-0.067,-0.187l-0.07,-0.185l-0.071,-0.185l-0.074,-0.184l-0.076,-0.182l-0.078,-0.181l-0.08,-0.18l-0.082,-0.179l-0.085,-0.178l-0.086,-0.177l-0.089,-0.176l-0.091,-0.174l-0.092,-0.173l-0.095,-0.171l-0.097,-0.171l-0.099,-0.169l-0.1,-0.168l-0.103,-0.167l-0.104,-0.165l-0.107,-0.164l-0.108,-0.163l-0.111,-0.161l-0.112,-0.16l-0.114,-0.158l-0.116,-0.157l-0.118,-0.156l-0.12,-0.154l-0.121,-0.152l-0.123,-0.151l-0.125,-0.15l-0.127,-0.148l-0.128,-0.147l-0.131,-0.145l-0.132,-0.143l-0.133,-0.142l-0.135,-0.14l-0.137,-0.139l-0.139,-0.137l-0.14,-0.135l-0.142,-0.133l-0.144,-0.132l-0.144,-0.131l-0.147,-0.128l-0.148,-0.127l-0.15,-0.125l-0.151,-0.123l-0.152,-0.121l-0.155,-0.12l-0.155,-0.118l-0.157,-0.116l-0.158,-0.114l-0.16,-0.112l-0.162,-0.111l-0.162,-0.108l-0.164,-0.107l-0.165,-0.104l-0.167,-0.103l-0.168,-0.101l-0.169,-0.098l-0.171,-0.097l-0.171,-0.095l-0.174,-0.093l-0.174,-0.09l-0.175,-0.089l-0.177,-0.086l-0.178,-0.085l-0.179,-0.082l-0.18,-0.08l-0.181,-0.078l-0.182,-0.076l-0.184,-0.074l-0.185,-0.071l-0.185,-0.07l-0.187,-0.067l-0.188,-0.065l-0.189,-0.062l-0.189,-0.061l-0.191,-0.058l-0.192,-0.056l-0.193,-0.053l-0.193,-0.051l-0.195,-0.049l-0.196,-0.047l-0.196,-0.044l-0.198,-0.041l-0.198,-0.04l-0.199,-0.037l-0.2,-0.034l-0.201,-0.032l-0.202,-0.03l-0.202,-0.027l-0.204,-0.024l-0.204,-0.022l-0.204,-0.02l-0.206,-0.017l-0.206,-0.014l-0.208,-0.012l-0.207,-0.009l-0.209,-0.007l-0.209,-0.004l-0.215,-0.001l-117.282,0Z" style="fill:url(#_Linear2);"/><path d="M135.392,0.821l0.228,0.004l0.228,0.008l0.227,0.01l0.226,0.013l0.225,0.015l0.225,0.019l0.223,0.021l0.223,0.024l0.222,0.027l0.222,0.03l0.22,0.032l0.219,0.035l0.219,0.038l0.218,0.04l0.216,0.043l0.216,0.046l0.215,0.048l0.214,0.051l0.213,0.053l0.212,0.056l0.21,0.059l0.21,0.061l0.209,0.063l0.207,0.066l0.207,0.069l0.205,0.071l0.204,0.073l0.203,0.076l0.202,0.078l0.2,0.081l0.2,0.082l0.198,0.086l0.197,0.087l0.196,0.09l0.194,0.093l0.193,0.094l0.192,0.097l0.19,0.099l0.189,0.101l0.188,0.104l0.186,0.105l0.185,0.108l0.183,0.11l0.182,0.112l0.181,0.115l0.179,0.116l0.178,0.119l0.176,0.12l0.174,0.123l0.173,0.124l0.172,0.127l0.169,0.129l0.169,0.13l0.166,0.133l0.165,0.134l0.164,0.137l0.161,0.138l0.16,0.14l0.159,0.143l0.156,0.144l0.155,0.146l0.153,0.147l0.151,0.15l0.15,0.151l0.148,0.153l0.145,0.155l0.144,0.156l0.143,0.159l0.14,0.16l0.138,0.161l0.137,0.164l0.134,0.165l0.133,0.166l0.13,0.169l0.129,0.169l0.127,0.172l0.124,0.173l0.123,0.174l0.121,0.176l0.118,0.178l0.116,0.179l0.115,0.181l0.112,0.182l0.11,0.183l0.108,0.185l0.105,0.186l0.104,0.188l0.101,0.189l0.099,0.19l0.097,0.192l0.094,0.193l0.093,0.195l0.09,0.195l0.087,0.197l0.086,0.198l0.083,0.2l0.08,0.2l0.078,0.202l0.076,0.203l0.074,0.204l0.07,0.206l0.069,0.206l0.066,0.207l0.064,0.209l0.061,0.21l0.058,0.211l0.056,0.211l0.053,0.213l0.051,0.214l0.048,0.215l0.046,0.216l0.043,0.216l0.04,0.218l0.038,0.219l0.035,0.219l0.032,0.221l0.03,0.221l0.027,0.222l0.024,0.223l0.021,0.224l0.019,0.224l0.015,0.225l0.013,0.226l0.01,0.227l0.008,0.228l0.004,0.228l0.001,0.229l-0.001,0.229l-0.004,0.228l-0.008,0.228l-0.01,0.227l-0.013,0.226l-0.015,0.225l-0.019,0.225l-0.021,0.223l-0.024,0.223l-0.027,0.222l-0.03,0.222l-0.032,0.22l-0.035,0.219l-0.038,0.219l-0.04,0.218l-0.043,0.216l-0.046,0.216l-0.048,0.215l-0.051,0.214l-0.053,0.213l-0.056,0.212l-0.058,0.21l-0.061,0.21l-0.064,0.209l-0.066,0.207l-0.069,0.207l-0.07,0.205l-0.074,0.204l-0.076,0.203l-0.078,0.202l-0.08,0.2l-0.083,0.2l-0.086,0.198l-0.087,0.197l-0.09,0.196l-0.093,0.194l-0.094,0.193l-0.097,0.192l-0.099,0.19l-0.101,0.189l-0.104,0.188l-0.105,0.186l-0.108,0.185l-0.11,0.183l-0.112,0.182l-0.115,0.181l-0.116,0.179l-0.118,0.178l-0.121,0.176l-0.123,0.174l-0.124,0.173l-0.127,0.172l-0.129,0.169l-0.13,0.169l-0.133,0.166l-0.134,0.165l-0.137,0.164l-0.138,0.161l-0.14,0.16l-0.143,0.159l-0.144,0.156l-0.145,0.155l-0.148,0.153l-0.15,0.151l-0.151,0.15l-0.153,0.148l-0.155,0.145l-0.156,0.144l-0.159,0.143l-0.16,0.14l-0.161,0.138l-0.164,0.137l-0.165,0.134l-0.166,0.133l-0.169,0.13l-0.169,0.129l-0.172,0.127l-0.173,0.124l-0.174,0.123l-0.176,0.121l-0.178,0.118l-0.179,0.116l-0.181,0.115l-0.182,0.112l-0.183,0.11l-0.185,0.108l-0.186,0.105l-0.188,0.104l-0.189,0.101l-0.19,0.099l-0.192,0.097l-0.193,0.094l-0.194,0.093l-0.196,0.09l-0.197,0.087l-0.198,0.086l-0.2,0.083l-0.2,0.08l-0.202,0.078l-0.203,0.076l-0.204,0.074l-0.205,0.07l-0.207,0.069l-0.207,0.066l-0.209,0.064l-0.21,0.061l-0.21,0.058l-0.212,0.056l-0.213,0.053l-0.214,0.051l-0.215,0.048l-0.216,0.046l-0.216,0.043l-0.218,0.04l-0.219,0.038l-0.219,0.035l-0.22,0.032l-0.222,0.03l-0.222,0.027l-0.223,0.024l-0.223,0.021l-0.225,0.019l-0.225,0.015l-0.226,0.013l-0.227,0.01l-0.228,0.008l-0.228,0.004l-0.229,0.001l-117.292,0l-0.229,-0.001l-0.228,-0.004l-0.228,-0.008l-0.226,-0.01l-0.226,-0.013l-0.226,-0.015l-0.224,-0.019l-0.224,-0.021l-0.223,-0.024l-0.222,-0.027l-0.221,-0.03l-0.221,-0.032l-0.219,-0.035l-0.219,-0.038l-0.217,-0.04l-0.217,-0.043l-0.216,-0.046l-0.215,-0.048l-0.214,-0.051l-0.212,-0.053l-0.212,-0.056l-0.211,-0.058l-0.21,-0.061l-0.208,-0.064l-0.208,-0.066l-0.206,-0.069l-0.206,-0.07l-0.204,-0.074l-0.203,-0.076l-0.202,-0.078l-0.2,-0.08l-0.2,-0.083l-0.198,-0.086l-0.197,-0.087l-0.195,-0.09l-0.195,-0.093l-0.193,-0.094l-0.191,-0.097l-0.191,-0.099l-0.189,-0.101l-0.188,-0.104l-0.186,-0.105l-0.185,-0.108l-0.183,-0.11l-0.182,-0.112l-0.181,-0.115l-0.179,-0.116l-0.177,-0.118l-0.176,-0.121l-0.175,-0.123l-0.173,-0.124l-0.171,-0.127l-0.17,-0.129l-0.168,-0.13l-0.167,-0.133l-0.165,-0.134l-0.163,-0.137l-0.162,-0.138l-0.16,-0.14l-0.158,-0.143l-0.157,-0.144l-0.155,-0.145l-0.153,-0.148l-0.151,-0.15l-0.15,-0.151l-0.147,-0.153l-0.146,-0.155l-0.144,-0.156l-0.142,-0.159l-0.141,-0.16l-0.138,-0.161l-0.136,-0.164l-0.135,-0.165l-0.133,-0.166l-0.13,-0.169l-0.129,-0.169l-0.127,-0.172l-0.124,-0.173l-0.123,-0.174l-0.12,-0.176l-0.119,-0.178l-0.116,-0.179l-0.114,-0.181l-0.113,-0.182l-0.11,-0.183l-0.107,-0.185l-0.106,-0.186l-0.104,-0.188l-0.101,-0.189l-0.099,-0.19l-0.097,-0.192l-0.094,-0.193l-0.092,-0.194l-0.09,-0.196l-0.088,-0.197l-0.085,-0.198l-0.083,-0.2l-0.081,-0.2l-0.078,-0.202l-0.076,-0.203l-0.073,-0.204l-0.071,-0.205l-0.069,-0.207l-0.066,-0.207l-0.063,-0.209l-0.061,-0.21l-0.059,-0.21l-0.056,-0.212l-0.053,-0.213l-0.051,-0.214l-0.048,-0.215l-0.046,-0.216l-0.043,-0.216l-0.04,-0.218l-0.038,-0.219l-0.035,-0.219l-0.032,-0.22l-0.03,-0.222l-0.027,-0.222l-0.024,-0.223l-0.021,-0.223l-0.018,-0.225l-0.016,-0.225l-0.013,-0.226l-0.01,-0.227l-0.007,-0.228l-0.005,-0.228l-0.001,-0.229l0.001,-0.229l0.005,-0.228l0.007,-0.228l0.01,-0.227l0.013,-0.226l0.016,-0.225l0.018,-0.224l0.021,-0.224l0.024,-0.223l0.027,-0.222l0.03,-0.221l0.032,-0.221l0.035,-0.219l0.038,-0.219l0.04,-0.218l0.043,-0.216l0.046,-0.216l0.048,-0.215l0.051,-0.214l0.053,-0.213l0.056,-0.211l0.059,-0.211l0.061,-0.21l0.063,-0.209l0.066,-0.207l0.069,-0.206l0.071,-0.206l0.073,-0.204l0.076,-0.203l0.078,-0.202l0.081,-0.2l0.083,-0.2l0.085,-0.198l0.088,-0.197l0.09,-0.195l0.092,-0.195l0.094,-0.193l0.097,-0.192l0.099,-0.19l0.101,-0.189l0.104,-0.188l0.106,-0.186l0.107,-0.185l0.11,-0.183l0.113,-0.182l0.114,-0.181l0.116,-0.179l0.119,-0.178l0.12,-0.176l0.123,-0.174l0.124,-0.173l0.127,-0.172l0.129,-0.169l0.13,-0.169l0.133,-0.166l0.135,-0.165l0.136,-0.164l0.138,-0.161l0.141,-0.16l0.142,-0.159l0.144,-0.156l0.146,-0.155l0.147,-0.153l0.15,-0.151l0.151,-0.15l0.153,-0.147l0.155,-0.146l0.157,-0.144l0.158,-0.143l0.16,-0.14l0.162,-0.138l0.163,-0.137l0.165,-0.134l0.167,-0.133l0.168,-0.13l0.17,-0.129l0.171,-0.127l0.173,-0.124l0.175,-0.123l0.176,-0.12l0.177,-0.119l0.179,-0.116l0.181,-0.115l0.182,-0.112l0.183,-0.11l0.185,-0.108l0.186,-0.105l0.188,-0.104l0.189,-0.101l0.191,-0.099l0.191,-0.097l0.193,-0.094l0.195,-0.093l0.195,-0.09l0.197,-0.087l0.198,-0.086l0.2,-0.082l0.2,-0.081l0.202,-0.078l0.203,-0.076l0.204,-0.073l0.206,-0.071l0.206,-0.069l0.208,-0.066l0.208,-0.063l0.21,-0.061l0.211,-0.059l0.212,-0.056l0.212,-0.053l0.214,-0.051l0.215,-0.048l0.216,-0.046l0.217,-0.043l0.217,-0.04l0.219,-0.038l0.219,-0.035l0.221,-0.032l0.221,-0.03l0.222,-0.027l0.223,-0.024l0.224,-0.021l0.224,-0.019l0.226,-0.015l0.226,-0.013l0.226,-0.01l0.228,-0.008l0.228,-0.004l0.229,-0.001l117.292,0l0.229,0.001Zm-117.516,1.499l-0.215,0.001l-0.209,0.004l-0.208,0.007l-0.208,0.009l-0.207,0.012l-0.207,0.014l-0.205,0.017l-0.205,0.02l-0.204,0.022l-0.204,0.024l-0.202,0.027l-0.202,0.03l-0.201,0.032l-0.2,0.034l-0.199,0.037l-0.198,0.039l-0.198,0.042l-0.196,0.044l-0.196,0.047l-0.194,0.049l-0.194,0.051l-0.193,0.053l-0.192,0.056l-0.191,0.058l-0.189,0.061l-0.189,0.062l-0.188,0.065l-0.187,0.067l-0.185,0.07l-0.185,0.071l-0.183,0.074l-0.183,0.076l-0.181,0.078l-0.18,0.08l-0.179,0.082l-0.178,0.085l-0.177,0.086l-0.175,0.089l-0.175,0.091l-0.172,0.092l-0.172,0.095l-0.171,0.097l-0.169,0.098l-0.168,0.101l-0.166,0.103l-0.166,0.104l-0.164,0.107l-0.162,0.108l-0.162,0.111l-0.159,0.112l-0.159,0.114l-0.157,0.116l-0.156,0.118l-0.153,0.119l-0.153,0.122l-0.151,0.123l-0.15,0.125l-0.148,0.127l-0.146,0.128l-0.145,0.131l-0.144,0.132l-0.142,0.133l-0.14,0.135l-0.138,0.137l-0.137,0.139l-0.136,0.14l-0.133,0.142l-0.132,0.143l-0.13,0.145l-0.129,0.147l-0.127,0.148l-0.125,0.15l-0.123,0.151l-0.121,0.152l-0.12,0.154l-0.118,0.156l-0.116,0.157l-0.114,0.158l-0.112,0.16l-0.11,0.161l-0.109,0.163l-0.107,0.164l-0.104,0.165l-0.103,0.167l-0.1,0.168l-0.099,0.169l-0.097,0.17l-0.095,0.172l-0.092,0.173l-0.091,0.174l-0.089,0.176l-0.086,0.177l-0.084,0.177l-0.083,0.179l-0.08,0.181l-0.078,0.181l-0.076,0.182l-0.074,0.184l-0.071,0.185l-0.069,0.185l-0.068,0.187l-0.065,0.188l-0.062,0.188l-0.06,0.19l-0.059,0.191l-0.056,0.192l-0.053,0.193l-0.051,0.193l-0.049,0.195l-0.046,0.196l-0.045,0.196l-0.041,0.198l-0.04,0.198l-0.037,0.199l-0.034,0.2l-0.032,0.201l-0.03,0.201l-0.027,0.203l-0.024,0.204l-0.022,0.204l-0.02,0.204l-0.017,0.206l-0.014,0.206l-0.012,0.208l-0.009,0.207l-0.007,0.209l-0.004,0.209l-0.001,0.21l0.001,0.21l0.004,0.21l0.007,0.208l0.009,0.207l0.012,0.208l0.014,0.206l0.017,0.206l0.02,0.204l0.022,0.205l0.024,0.203l0.027,0.203l0.03,0.201l0.032,0.201l0.034,0.2l0.037,0.199l0.04,0.198l0.041,0.198l0.045,0.196l0.046,0.196l0.049,0.195l0.051,0.193l0.053,0.193l0.056,0.192l0.059,0.191l0.06,0.19l0.062,0.188l0.065,0.188l0.068,0.187l0.069,0.185l0.071,0.185l0.074,0.184l0.076,0.182l0.078,0.181l0.08,0.181l0.083,0.179l0.084,0.177l0.086,0.177l0.089,0.176l0.091,0.174l0.092,0.173l0.095,0.172l0.097,0.17l0.099,0.169l0.1,0.168l0.103,0.167l0.104,0.165l0.107,0.164l0.109,0.163l0.11,0.161l0.112,0.16l0.114,0.158l0.116,0.157l0.118,0.156l0.12,0.154l0.121,0.152l0.123,0.151l0.125,0.15l0.127,0.148l0.129,0.147l0.13,0.145l0.132,0.143l0.133,0.142l0.136,0.14l0.137,0.139l0.138,0.137l0.14,0.135l0.142,0.133l0.144,0.133l0.145,0.13l0.146,0.128l0.148,0.127l0.15,0.125l0.151,0.123l0.153,0.122l0.153,0.119l0.156,0.118l0.157,0.116l0.159,0.114l0.159,0.112l0.162,0.111l0.162,0.108l0.164,0.107l0.166,0.104l0.166,0.103l0.168,0.101l0.169,0.098l0.171,0.097l0.172,0.095l0.172,0.093l0.175,0.09l0.175,0.089l0.177,0.086l0.178,0.085l0.179,0.082l0.18,0.08l0.181,0.078l0.183,0.076l0.183,0.074l0.185,0.071l0.185,0.07l0.187,0.067l0.188,0.065l0.189,0.062l0.189,0.061l0.191,0.058l0.192,0.056l0.193,0.053l0.194,0.051l0.194,0.049l0.196,0.047l0.196,0.044l0.198,0.042l0.198,0.039l0.199,0.037l0.2,0.034l0.201,0.032l0.202,0.03l0.202,0.027l0.204,0.024l0.204,0.023l0.205,0.019l0.205,0.017l0.207,0.014l0.207,0.012l0.207,0.01l0.209,0.006l0.209,0.004l0.215,0.001l117.282,0l0.215,-0.001l0.209,-0.004l0.209,-0.006l0.207,-0.01l0.208,-0.012l0.206,-0.014l0.206,-0.017l0.205,-0.019l0.204,-0.023l0.203,-0.024l0.202,-0.027l0.202,-0.03l0.201,-0.032l0.2,-0.034l0.199,-0.037l0.198,-0.039l0.198,-0.042l0.196,-0.044l0.196,-0.047l0.195,-0.049l0.193,-0.051l0.193,-0.053l0.192,-0.056l0.191,-0.058l0.19,-0.061l0.188,-0.062l0.188,-0.065l0.187,-0.067l0.186,-0.07l0.184,-0.071l0.184,-0.074l0.182,-0.076l0.181,-0.078l0.18,-0.08l0.179,-0.082l0.178,-0.085l0.177,-0.086l0.176,-0.089l0.174,-0.09l0.173,-0.093l0.172,-0.095l0.17,-0.097l0.169,-0.098l0.168,-0.101l0.167,-0.103l0.165,-0.104l0.164,-0.107l0.163,-0.108l0.161,-0.111l0.16,-0.112l0.158,-0.114l0.157,-0.116l0.156,-0.118l0.154,-0.12l0.152,-0.121l0.151,-0.123l0.15,-0.125l0.148,-0.127l0.147,-0.128l0.145,-0.13l0.143,-0.133l0.142,-0.133l0.14,-0.135l0.139,-0.137l0.137,-0.139l0.135,-0.14l0.133,-0.142l0.132,-0.143l0.131,-0.145l0.128,-0.147l0.127,-0.148l0.125,-0.15l0.123,-0.151l0.121,-0.152l0.12,-0.154l0.118,-0.156l0.116,-0.157l0.114,-0.158l0.112,-0.16l0.111,-0.161l0.108,-0.163l0.107,-0.164l0.104,-0.165l0.103,-0.167l0.101,-0.167l0.098,-0.17l0.097,-0.171l0.095,-0.171l0.093,-0.173l0.09,-0.174l0.089,-0.176l0.086,-0.176l0.085,-0.178l0.082,-0.18l0.08,-0.18l0.078,-0.181l0.076,-0.182l0.074,-0.184l0.071,-0.185l0.07,-0.185l0.067,-0.187l0.065,-0.187l0.062,-0.19l0.061,-0.189l0.058,-0.191l0.056,-0.192l0.053,-0.193l0.051,-0.193l0.049,-0.195l0.047,-0.196l0.044,-0.196l0.041,-0.197l0.04,-0.199l0.037,-0.199l0.034,-0.2l0.032,-0.201l0.03,-0.201l0.027,-0.203l0.024,-0.203l0.023,-0.205l0.019,-0.204l0.017,-0.206l0.014,-0.206l0.012,-0.207l0.009,-0.208l0.007,-0.209l0.004,-0.209l0.001,-0.21l-0.001,-0.21l-0.004,-0.209l-0.007,-0.209l-0.009,-0.208l-0.012,-0.207l-0.014,-0.206l-0.017,-0.206l-0.019,-0.204l-0.023,-0.204l-0.024,-0.204l-0.027,-0.203l-0.03,-0.201l-0.032,-0.201l-0.034,-0.2l-0.037,-0.199l-0.04,-0.199l-0.041,-0.197l-0.044,-0.196l-0.047,-0.196l-0.049,-0.195l-0.051,-0.193l-0.053,-0.193l-0.056,-0.192l-0.058,-0.191l-0.061,-0.189l-0.062,-0.189l-0.065,-0.188l-0.067,-0.187l-0.07,-0.185l-0.071,-0.185l-0.074,-0.184l-0.076,-0.182l-0.078,-0.181l-0.08,-0.18l-0.082,-0.179l-0.085,-0.178l-0.086,-0.177l-0.089,-0.176l-0.09,-0.174l-0.093,-0.173l-0.095,-0.171l-0.097,-0.171l-0.098,-0.169l-0.101,-0.168l-0.103,-0.167l-0.104,-0.165l-0.107,-0.164l-0.108,-0.163l-0.111,-0.161l-0.112,-0.16l-0.114,-0.158l-0.116,-0.157l-0.118,-0.156l-0.12,-0.154l-0.121,-0.152l-0.123,-0.151l-0.125,-0.15l-0.127,-0.148l-0.128,-0.147l-0.131,-0.145l-0.132,-0.143l-0.133,-0.142l-0.135,-0.14l-0.137,-0.139l-0.139,-0.137l-0.14,-0.135l-0.142,-0.133l-0.143,-0.132l-0.145,-0.131l-0.147,-0.128l-0.148,-0.127l-0.15,-0.125l-0.151,-0.123l-0.152,-0.121l-0.154,-0.12l-0.156,-0.118l-0.157,-0.116l-0.158,-0.114l-0.16,-0.112l-0.161,-0.111l-0.163,-0.108l-0.164,-0.107l-0.165,-0.104l-0.167,-0.103l-0.168,-0.101l-0.169,-0.098l-0.17,-0.097l-0.172,-0.095l-0.173,-0.093l-0.174,-0.09l-0.176,-0.089l-0.177,-0.086l-0.178,-0.085l-0.179,-0.082l-0.18,-0.08l-0.181,-0.078l-0.182,-0.076l-0.184,-0.074l-0.184,-0.071l-0.186,-0.07l-0.187,-0.067l-0.188,-0.065l-0.188,-0.062l-0.19,-0.061l-0.191,-0.058l-0.192,-0.056l-0.193,-0.053l-0.193,-0.051l-0.195,-0.049l-0.196,-0.047l-0.196,-0.044l-0.198,-0.041l-0.198,-0.04l-0.199,-0.037l-0.2,-0.034l-0.201,-0.032l-0.202,-0.03l-0.202,-0.027l-0.203,-0.024l-0.204,-0.022l-0.205,-0.02l-0.206,-0.017l-0.206,-0.014l-0.207,-0.012l-0.208,-0.009l-0.209,-0.007l-0.209,-0.004l-0.215,-0.001l-117.282,0Z" style="fill:url(#_Linear3);"/></g><defs><linearGradient id="_Linear2" x1="0" y1="0" x2="1" y2="0" gradientUnits="userSpaceOnUse" gradientTransform="matrix(152.743,0,0,35.4509,3.50768,18.545)"><stop offset="0%" style="stop-color:#a102e7;stop-opacity:1"/><stop offset="46%" style="stop-color:#c9a6d8;stop-opacity:0.219608"/><stop offset="100%" style="stop-color:#d4d4d4;stop-opacity:0"/></linearGradient><linearGradient id="_Linear3" x1="0" y1="0" x2="1" y2="0" gradientUnits="userSpaceOnUse" gradientTransform="matrix(152.743,0,0,35.4509,0.145789,18.545)"><stop offset="0%" style="stop-color:#a102e7;stop-opacity:1"/><stop offset="46%" style="stop-color:#c9a6d8;stop-opacity:0.219608"/><stop offset="100%" style="stop-color:#d4d4d4;stop-opacity:0"/></linearGradient></defs></svg>