<?xml version="1.0" encoding="UTF-8" standalone="no"?>
<!DOCTYPE svg PUBLIC "-//W3C//DTD SVG 1.1//EN" "http://www.w3.org/Graphics/SVG/1.1/DTD/svg11.dtd">
<svg width="100%" height="100%" viewBox="0 0 13 16" version="1.1" xmlns="http://www.w3.org/2000/svg" xmlns:xlink="http://www.w3.org/1999/xlink" xml:space="preserve" style="fill-rule:evenodd;clip-rule:evenodd;stroke-linecap:round;stroke-linejoin:round;stroke-miterlimit:10;">
    <g transform="matrix(1,0,0,1,-5857.08,-1898.37)">
        <g transform="matrix(0.657792,0,0,0.771058,4911.71,1840.74)">
            <g id="transactions-icon" transform="matrix(1.29692,0,0,1.29692,-479.363,-171.625)">
                <g transform="matrix(1.17219,0,0,1,-5385.9,-1650.43)">
                    <path d="M5858.24,1842.32L5858.31,1852.21" style="fill:none;stroke:rgb(27,187,60);stroke-width:1.5px;"/>
                </g>
                <g transform="matrix(1.17219,0,0,1,-5385.9,-1650.43)">
                    <path d="M5856.16,1843.23L5858.24,1841.15" style="fill:none;stroke:rgb(27,187,60);stroke-width:1.5px;"/>
                </g>
                <g transform="matrix(-1.17219,0,0,1,8348.15,-1650.43)">
                    <path d="M5856.16,1843.23L5858.24,1841.15" style="fill:none;stroke:rgb(27,187,60);stroke-width:1.5px;"/>
                </g>
                <g transform="matrix(1.17219,0,0,-1,-5377.83,2045.63)">
                    <path d="M5858.24,1842.32L5858.29,1848.17" style="fill:none;stroke:rgb(27,187,60);stroke-width:1.5px;"/>
                </g>
                <g transform="matrix(1.17219,0,0,-1,-5377.83,2045.63)">
                    <path d="M5858.32,1852.87L5858.31,1851.21" style="fill:none;stroke:rgb(27,187,60);stroke-width:1.5px;"/>
                </g>
                <g transform="matrix(1.17219,0,0,-1,-5377.83,2045.63)">
                    <path d="M5856.16,1843.23L5858.24,1841.15" style="fill:none;stroke:rgb(27,187,60);stroke-width:1.5px;"/>
                </g>
                <g transform="matrix(-1.17219,0,0,-1,8356.22,2045.63)">
                    <path d="M5856.16,1843.23L5858.24,1841.15" style="fill:none;stroke:rgb(27,187,60);stroke-width:1.5px;"/>
                </g>
            </g>
        </g>
    </g>
</svg>
