<?xml version="1.0" encoding="UTF-8"?>
<svg width="18px" height="17px" viewBox="0 0 18 17" version="1.1" xmlns="http://www.w3.org/2000/svg" xmlns:xlink="http://www.w3.org/1999/xlink">
    <!-- Generator: Sketch 53.2 (72643) - https://sketchapp.com -->
    <title>User</title>
    <desc>Created with Sketch.</desc>
    <g id="Dash-Home-V2" stroke="none" stroke-width="1" fill="none" fill-rule="evenodd">
        <g id="dashboard-home" transform="translate(-155.000000, -265.000000)" fill="#FFFFFF">
            <g id="dash-container" transform="translate(130.000000, 117.000000)">
                <g id="left-nav">
                    <g id="User" transform="translate(25.000000, 148.000000)">
                        <path d="M9.03179487,10.6358974 C11.4335897,10.6358974 13.3907692,8.29076923 13.3907692,5.40512821 C13.3907692,2.51948718 11.4335897,0.174358974 9.03179487,0.174358974 C6.63,0.174358974 4.67282051,2.51948718 4.67282051,5.40512821 C4.67282051,8.29076923 6.63435897,10.6358974 9.03179487,10.6358974 Z M9.03179487,1.48205128 C10.7187179,1.48205128 12.0830769,3.22564103 12.0830769,5.40512821 C12.0830769,7.58461538 10.7187179,9.32820513 9.03179487,9.32820513 C7.34487179,9.32820513 5.98051282,7.58461538 5.98051282,5.40512821 C5.98051282,3.22564103 7.34487179,1.48205128 9.03179487,1.48205128 Z" id="Shape"></path>
                        <path d="M13.0202564,10.2 C12.6591472,10.1638891 12.3371366,10.4273523 12.3010257,10.7884615 C12.2649148,11.1495708 12.5283779,11.4715814 12.8894872,11.5076923 C14.9172915,11.745972 16.4883157,13.3938995 16.6294872,15.4307692 L1.43410256,15.4307692 C1.58861861,13.3998115 3.15284073,11.7590191 5.17410256,11.5076923 C5.53521182,11.4715814 5.79867503,11.1495708 5.7625641,10.7884615 C5.72645318,10.4273523 5.40444259,10.1638891 5.04333333,10.2 C4.99538462,10.2 0.0958974359,10.7579487 0.0958974359,16.0802564 C0.0958974359,16.4413657 0.38863433,16.7341026 0.74974359,16.7341026 L17.3138462,16.7341026 C17.6749554,16.7341026 17.9676923,16.4413657 17.9676923,16.0802564 C17.9676923,10.7579487 13.0682051,10.2 13.0202564,10.2 Z" id="Shape"></path>
                    </g>
                </g>
            </g>
        </g>
    </g>
</svg>