<?xml version="1.0" encoding="UTF-8"?>
<svg width="30px" height="30px" viewBox="0 0 30 30" version="1.1" xmlns="http://www.w3.org/2000/svg" xmlns:xlink="http://www.w3.org/1999/xlink">
    <!-- Generator: Sketch 53.2 (72643) - https://sketchapp.com -->
    <title>user-circle-white-icon</title>
    <desc>Created with Sketch.</desc>
    <g id="Symbols" stroke="none" stroke-width="1" fill="none" fill-rule="evenodd">
        <g id="top-nav" transform="translate(-855.000000, -20.000000)" fill="#FFFFFF">
            <g id="user-circle-white-icon">
                <g transform="translate(855.000000, 20.000000)">
                    <path d="M15.1466667,0.433333333 C7.04649034,0.433333333 0.48,6.99982367 0.48,15.1 C0.48,23.2001763 7.04649034,29.7666667 15.1466667,29.7666667 C23.246843,29.7666667 29.8133333,23.2001763 29.8133333,15.1 C29.8133333,6.99982367 23.246843,0.433333333 15.1466667,0.433333333 Z M2.48,15.1 C2.479595,9.5523754 6.0892124,4.65000325 11.3868055,3.00329549 C16.6843986,1.35658773 22.4371221,3.34876286 25.5817697,7.91902877 C28.7264173,12.4892947 28.5311729,18.5740683 25.1,22.9333333 C23.5718172,20.6571819 21.3545413,18.9305571 18.7733333,18.0066667 C19.8888495,16.8126022 20.5002531,15.2339388 20.48,13.6 C20.48,10.2666667 18.0866667,7.6 15.1466667,7.6 C12.2066667,7.6 9.81333333,10.2666667 9.81333333,13.6 C9.79675992,15.2922505 10.4595683,16.9204536 11.6533333,18.12 C9.05380735,19.0531449 6.86119221,20.8638207 5.45333333,23.24 C3.53146425,20.9632732 2.47807384,18.0794398 2.48,15.1 L2.48,15.1 Z M15.48,17.4333333 C15.1147755,17.4348336 14.7498621,17.4548594 14.3866667,17.4933333 C12.7642276,16.90497 11.7187653,15.3232344 11.8133333,13.6 C11.8133333,11.3933333 13.3066667,9.6 15.1466667,9.6 C16.9866667,9.6 18.48,11.3933333 18.48,13.6 C18.5621471,15.2747481 17.5788672,16.8191388 16.0266667,17.4533333 C15.8466667,17.4466667 15.6666667,17.4333333 15.48,17.4333333 Z M6.93333333,24.7666667 C8.38231915,21.9378245 11.1187953,19.9924388 14.2666667,19.5533333 C14.9156558,19.6800722 15.5844447,19.6641487 16.2266667,19.5066667 C19.3376916,19.9267636 22.0844802,21.7497664 23.68,24.4533333 C18.9785551,28.7928175 11.7736304,28.9274623 6.91333333,24.7666667 L6.93333333,24.7666667 Z" id="Shape"></path>
                </g>
            </g>
        </g>
    </g>
</svg>