<?xml version="1.0" encoding="UTF-8" standalone="no"?><!DOCTYPE svg PUBLIC "-//W3C//DTD SVG 1.1//EN" "http://www.w3.org/Graphics/SVG/1.1/DTD/svg11.dtd"><svg width="100%" height="100%" viewBox="0 0 35 34" version="1.1" xmlns="http://www.w3.org/2000/svg" xmlns:xlink="http://www.w3.org/1999/xlink" xml:space="preserve" style="fill-rule:evenodd;clip-rule:evenodd;stroke-linejoin:round;stroke-miterlimit:1.41421;"><g id="wallet-icon"><circle cx="17.394" cy="16.707" r="16.666" style="fill:#67eaa7;"/><path id="walletSmall" d="M27.044,11.89c0,-1.104 -0.897,-2 -2,-2l-15.259,0c-1.104,0 -2,0.896 -2,2l0,9.04c0,1.104 0.896,2 2,2l15.259,0c1.103,0 2,-0.896 2,-2l0,-9.04Z" style="fill:#f0fff7;"/><clipPath id="_clip1"><path d="M27.044,11.89c0,-1.104 -0.897,-2 -2,-2l-15.259,0c-1.104,0 -2,0.896 -2,2l0,9.04c0,1.104 0.896,2 2,2l15.259,0c1.103,0 2,-0.896 2,-2l0,-9.04Z"/></clipPath><g clip-path="url(#_clip1)"><path d="M25.273,20.724l0.025,0.031l0.019,0.034l0.015,0.036l0.008,0.038l0.002,0.04l-0.004,0.039l-0.01,0.038l-0.016,0.035l-0.021,0.033l-0.026,0.03l-0.02,0.019l-0.046,0.039l-0.047,0.037l-0.049,0.035l-0.051,0.033l-0.052,0.029l-0.053,0.028l-0.056,0.025l-0.057,0.023l-0.058,0.019l-0.06,0.017l-0.06,0.014l-0.062,0.011l-0.062,0.008l-0.063,0.005l-0.062,0.002l-0.744,0l-0.039,-0.003l-0.038,-0.01l-0.036,-0.015l-0.034,-0.02l-0.03,-0.026l-0.025,-0.029l-0.021,-0.034l-0.015,-0.036l-0.009,-0.038l-0.003,-0.039l0,0l0.991,0l0.052,-0.002l0.05,-0.004l0.05,-0.006l0.05,-0.009l0.048,-0.011l0.047,-0.013l0.047,-0.016l0.045,-0.018l0.045,-0.02l0.043,-0.022l0.042,-0.024l0.04,-0.026l0.039,-0.028l0.038,-0.03l0.036,-0.031l0.035,-0.033l0.033,-0.035l0.032,-0.036l0.029,-0.038l0.028,-0.039l0.017,-0.027l0.023,0.02Zm-2.86,0.448l-0.003,0.039l-0.009,0.038l-0.015,0.036l-0.021,0.034l-0.025,0.029l-0.03,0.026l-0.033,0.02l-0.037,0.015l-0.038,0.01l-0.039,0.003l-1.5,0l-0.039,-0.003l-0.038,-0.01l-0.036,-0.015l-0.034,-0.02l-0.03,-0.026l-0.025,-0.029l-0.021,-0.034l-0.015,-0.036l-0.009,-0.038l-0.003,-0.039l0,0l2,0l0,0Zm-3,0l-0.003,0.039l-0.009,0.038l-0.015,0.036l-0.021,0.034l-0.025,0.029l-0.03,0.026l-0.033,0.02l-0.037,0.015l-0.038,0.01l-0.039,0.003l-1.5,0l-0.039,-0.003l-0.038,-0.01l-0.036,-0.015l-0.034,-0.02l-0.03,-0.026l-0.025,-0.029l-0.021,-0.034l-0.015,-0.036l-0.009,-0.038l-0.003,-0.039l0,0l2,0l0,0Zm-6,0l-0.003,0.039l-0.009,0.038l-0.015,0.036l-0.021,0.034l-0.025,0.029l-0.03,0.026l-0.033,0.02l-0.037,0.015l-0.038,0.01l-0.039,0.003l-1.5,0l-0.039,-0.003l-0.038,-0.01l-0.036,-0.015l-0.034,-0.02l-0.03,-0.026l-0.025,-0.029l-0.021,-0.034l-0.015,-0.036l-0.009,-0.038l-0.003,-0.039l0,0l2,0l0,0Zm3,0l-0.003,0.039l-0.009,0.038l-0.015,0.036l-0.021,0.034l-0.025,0.029l-0.03,0.026l-0.033,0.02l-0.037,0.015l-0.038,0.01l-0.039,0.003l-1.5,0l-0.039,-0.003l-0.038,-0.01l-0.036,-0.015l-0.034,-0.02l-0.03,-0.026l-0.025,-0.029l-0.021,-0.034l-0.015,-0.036l-0.009,-0.038l-0.003,-0.039l0,0l2,0l0,0Zm-6.628,-1.801l0,0.801l0.001,0.051l0.004,0.051l0.006,0.05l0.009,0.049l0.011,0.048l0.014,0.048l0.016,0.046l0.018,0.046l0.02,0.044l0.022,0.043l0.024,0.042l0.026,0.041l0.028,0.039l0.029,0.038l0.032,0.036l0.033,0.035l0.035,0.033l0.036,0.031l0.038,0.03l0.039,0.028l0.041,0.026l0.041,0.024l0.044,0.022l0.044,0.02l0.026,0.01l-0.015,0.026l-0.025,0.03l-0.03,0.026l-0.033,0.02l-0.036,0.016l-0.038,0.01l-0.039,0.003l-0.039,-0.002l-0.039,-0.009l-0.036,-0.015l-0.034,-0.02l-0.021,-0.015l-0.048,-0.037l-0.045,-0.04l-0.043,-0.041l-0.041,-0.043l-0.039,-0.045l-0.038,-0.048l-0.034,-0.049l-0.033,-0.05l-0.03,-0.053l-0.028,-0.054l-0.025,-0.055l-0.022,-0.056l-0.02,-0.059l-0.017,-0.059l-0.014,-0.061l-0.011,-0.061l-0.008,-0.062l-0.005,-0.064l-0.001,-0.062l0,-0.553l0.003,-0.04l0.009,-0.038l0.015,-0.036l0.021,-0.033l0.025,-0.03l0.03,-0.026l0.033,-0.02l0.037,-0.015l0.038,-0.009l0.039,-0.003l0,0Zm15.658,-1.634l0.038,0.009l0.037,0.015l0.033,0.02l0.03,0.026l0.025,0.029l0.021,0.034l0.015,0.036l0.009,0.038l0.003,0.039l0,1.5l-0.003,0.04l-0.009,0.038l-0.015,0.036l-0.021,0.033l-0.025,0.03l-0.03,0.026l-0.033,0.02l-0.037,0.015l-0.038,0.009l-0.039,0.003l0,-2l0.039,0.004Zm-15.658,-1.366l0,2l0,0l-0.039,-0.004l-0.038,-0.009l-0.037,-0.015l-0.033,-0.02l-0.03,-0.026l-0.025,-0.03l-0.021,-0.033l-0.015,-0.036l-0.009,-0.038l-0.003,-0.039l0,-1.5l0.003,-0.04l0.009,-0.038l0.015,-0.036l0.021,-0.033l0.025,-0.03l0.03,-0.026l0.033,-0.02l0.037,-0.015l0.038,-0.009l0.039,-0.003l0,0Zm15.658,-1.634l0.038,0.009l0.037,0.015l0.033,0.02l0.03,0.026l0.025,0.029l0.021,0.034l0.015,0.036l0.009,0.038l0.003,0.039l0,1.5l-0.003,0.04l-0.009,0.038l-0.015,0.036l-0.021,0.033l-0.025,0.03l-0.03,0.026l-0.033,0.02l-0.037,0.015l-0.038,0.009l-0.039,0.003l0,-2l0.039,0.004Zm-15.658,-1.366l0,2l0,0l-0.039,-0.004l-0.038,-0.009l-0.037,-0.015l-0.033,-0.02l-0.03,-0.026l-0.025,-0.03l-0.021,-0.033l-0.015,-0.036l-0.009,-0.038l-0.003,-0.039l0,-1.5l0.003,-0.04l0.009,-0.038l0.015,-0.036l0.021,-0.033l0.025,-0.03l0.03,-0.026l0.033,-0.02l0.037,-0.015l0.038,-0.009l0.039,-0.003l0,0Zm14.747,-2.233l0.062,0.008l0.062,0.011l0.06,0.014l0.06,0.017l0.058,0.019l0.057,0.023l0.055,0.025l0.054,0.027l0.052,0.03l0.051,0.033l0.049,0.035l0.047,0.037l0.046,0.039l0.043,0.042l0.042,0.043l0.039,0.046l0.036,0.046l0.036,0.05l0.032,0.05l0.03,0.053l0.028,0.053l0.025,0.055l0.023,0.058l0.019,0.059l0.017,0.058l0.014,0.06l0.011,0.062l0.008,0.063l0.005,0.063l0.001,0.059l0,0.003l0,0.002l0,1.102l-0.003,0.04l-0.009,0.038l-0.015,0.036l-0.021,0.033l-0.025,0.03l-0.03,0.026l-0.033,0.02l-0.037,0.015l-0.038,0.009l-0.039,0.003l0,-1.352l-0.001,-0.051l-0.004,-0.051l-0.006,-0.05l-0.009,-0.049l-0.011,-0.048l-0.014,-0.048l-0.015,-0.046l-0.018,-0.046l-0.02,-0.044l-0.023,-0.043l-0.024,-0.042l-0.026,-0.041l-0.028,-0.039l-0.029,-0.038l-0.032,-0.036l-0.033,-0.035l-0.035,-0.033l-0.036,-0.031l-0.038,-0.03l-0.039,-0.028l-0.04,-0.026l-0.042,-0.024l-0.043,-0.022l-0.045,-0.02l-0.045,-0.018l-0.047,-0.016l-0.047,-0.013l-0.048,-0.011l-0.05,-0.009l-0.05,-0.006l-0.05,-0.004l-0.052,-0.002l-0.178,0l0,-0.015l0.006,-0.039l0.011,-0.037l0.018,-0.035l0.023,-0.032l0.028,-0.028l0.031,-0.023l0.035,-0.018l0.037,-0.013l0.039,-0.006l0.039,0l0.039,0.003Zm-13.518,-0.004l0.038,0.01l0.037,0.015l0.033,0.02l0.03,0.026l0.025,0.029l0.021,0.034l0.015,0.036l0.009,0.038l0.003,0.039l-0.44,0l-0.052,0.002l-0.05,0.004l-0.05,0.006l-0.05,0.009l-0.048,0.011l-0.047,0.013l-0.047,0.016l-0.045,0.018l-0.044,0.02l-0.044,0.022l-0.041,0.024l-0.041,0.026l-0.039,0.028l-0.038,0.03l-0.036,0.031l-0.035,0.033l-0.033,0.035l-0.032,0.036l-0.029,0.038l-0.028,0.039l-0.026,0.041l-0.024,0.042l-0.022,0.043l-0.02,0.044l-0.018,0.046l-0.016,0.046l-0.014,0.048l-0.011,0.048l-0.009,0.049l-0.006,0.05l-0.004,0.051l-0.001,0.041l-0.034,-0.007l-0.036,-0.013l-0.035,-0.019l-0.031,-0.025l-0.026,-0.028l-0.022,-0.033l-0.017,-0.035l-0.01,-0.038l-0.005,-0.039l0.001,-0.039l0.008,-0.039l0.013,-0.046l0.02,-0.059l0.022,-0.056l0.025,-0.055l0.028,-0.054l0.03,-0.053l0.033,-0.05l0.034,-0.049l0.038,-0.048l0.039,-0.045l0.041,-0.043l0.043,-0.041l0.045,-0.04l0.048,-0.037l0.049,-0.035l0.051,-0.032l0.052,-0.03l0.054,-0.028l0.056,-0.025l0.056,-0.023l0.058,-0.019l0.06,-0.017l0.06,-0.014l0.062,-0.011l0.062,-0.008l0.064,-0.005l0.061,-0.002l0.193,0l0.039,0.003Zm3,0l0.038,0.01l0.037,0.015l0.033,0.02l0.03,0.026l0.025,0.029l0.021,0.034l0.015,0.036l0.009,0.038l0.003,0.039l-2,0l0.003,-0.039l0.009,-0.038l0.015,-0.036l0.021,-0.034l0.025,-0.029l0.03,-0.026l0.034,-0.02l0.036,-0.015l0.038,-0.01l0.039,-0.003l1.5,0l0.039,0.003Zm3,0l0.038,0.01l0.037,0.015l0.033,0.02l0.03,0.026l0.025,0.029l0.021,0.034l0.015,0.036l0.009,0.038l0.003,0.039l-2,0l0.003,-0.039l0.009,-0.038l0.015,-0.036l0.021,-0.034l0.025,-0.029l0.03,-0.026l0.034,-0.02l0.036,-0.015l0.038,-0.01l0.039,-0.003l1.5,0l0.039,0.003Zm3,0l0.038,0.01l0.037,0.015l0.033,0.02l0.03,0.026l0.025,0.029l0.021,0.034l0.015,0.036l0.009,0.038l0.003,0.039l-2,0l0.003,-0.039l0.009,-0.038l0.015,-0.036l0.021,-0.034l0.025,-0.029l0.03,-0.026l0.034,-0.02l0.036,-0.015l0.038,-0.01l0.039,-0.003l1.5,0l0.039,0.003Zm3,0l0.038,0.01l0.037,0.015l0.033,0.02l0.03,0.026l0.025,0.029l0.021,0.034l0.015,0.036l0.009,0.038l0.003,0.039l-2,0l0.003,-0.039l0.009,-0.038l0.015,-0.036l0.021,-0.034l0.025,-0.029l0.03,-0.026l0.034,-0.02l0.036,-0.015l0.038,-0.01l0.039,-0.003l1.5,0l0.039,0.003Z" style="fill:#008642;"/><path d="M31.416,15.274c0,-0.552 -0.448,-1 -1,-1l-8.377,0c-0.552,0 -1,0.448 -1,1l0,2.272c0,0.552 0.448,1 1,1l8.377,0c0.552,0 1,-0.448 1,-1l0,-2.272Z" style="fill:#f0fff7;"/><path d="M30.567,12.277l0.151,0.012l0.154,0.019l0.147,0.027l0.145,0.033l0.146,0.041l0.14,0.048l0.135,0.054l0.133,0.06l0.129,0.066l0.128,0.073l0.12,0.077l0.118,0.084l0.113,0.09l0.108,0.092l0.102,0.098l0.1,0.104l0.096,0.112l0.088,0.111l0.083,0.116l0.078,0.123l0.073,0.126l0.067,0.131l0.059,0.132l0.053,0.135l0.048,0.14l0.041,0.145l0.034,0.145l0.026,0.146l0.02,0.155l0.011,0.154l0.003,0.123l0,2.322l-0.003,0.123l-0.011,0.154l-0.02,0.156l-0.026,0.145l-0.034,0.145l-0.041,0.146l-0.048,0.14l-0.053,0.134l-0.059,0.132l-0.068,0.132l-0.072,0.126l-0.078,0.122l-0.083,0.116l-0.088,0.112l-0.096,0.111l-0.098,0.103l-0.104,0.099l-0.108,0.093l-0.113,0.09l-0.118,0.083l-0.12,0.077l-0.128,0.074l-0.129,0.066l-0.133,0.06l-0.138,0.054l-0.14,0.048l-0.141,0.04l-0.147,0.034l-0.15,0.026l-0.148,0.019l-0.152,0.012l-0.127,0.003l-8.428,0l-0.128,-0.003l-0.152,-0.012l-0.148,-0.019l-0.15,-0.026l-0.147,-0.034l-0.141,-0.04l-0.14,-0.048l-0.136,-0.053l-0.136,-0.061l-0.13,-0.068l-0.123,-0.07l-0.123,-0.079l-0.12,-0.085l-0.111,-0.088l-0.108,-0.093l-0.104,-0.099l-0.098,-0.103l-0.096,-0.111l-0.088,-0.112l-0.082,-0.116l-0.079,-0.122l-0.072,-0.126l-0.068,-0.132l-0.059,-0.132l-0.053,-0.134l-0.048,-0.14l-0.041,-0.146l-0.034,-0.145l-0.026,-0.145l-0.019,-0.151l-0.012,-0.154l-0.003,-0.128l0,-2.322l0.003,-0.128l0.012,-0.154l0.019,-0.15l0.026,-0.146l0.034,-0.145l0.041,-0.145l0.048,-0.14l0.053,-0.135l0.059,-0.132l0.067,-0.131l0.073,-0.126l0.079,-0.123l0.082,-0.116l0.088,-0.111l0.096,-0.112l0.1,-0.104l0.102,-0.098l0.108,-0.092l0.111,-0.088l0.12,-0.086l0.123,-0.078l0.123,-0.071l0.13,-0.067l0.136,-0.061l0.133,-0.053l0.14,-0.048l0.146,-0.041l0.145,-0.033l0.147,-0.027l0.154,-0.019l0.151,-0.012l0.126,-0.003l8.428,0l0.125,0.003Zm-8.528,1.997l-0.052,0.002l-0.05,0.003l-0.05,0.007l-0.05,0.009l-0.048,0.011l-0.047,0.013l-0.047,0.016l-0.045,0.018l-0.045,0.02l-0.043,0.022l-0.042,0.024l-0.04,0.026l-0.039,0.028l-0.038,0.03l-0.036,0.031l-0.035,0.033l-0.033,0.035l-0.032,0.036l-0.029,0.038l-0.028,0.039l-0.026,0.041l-0.024,0.042l-0.023,0.043l-0.02,0.044l-0.017,0.046l-0.016,0.046l-0.014,0.047l-0.011,0.049l-0.009,0.049l-0.006,0.05l-0.004,0.051l-0.001,0.051l0,2.272l0.001,0.052l0.004,0.05l0.006,0.05l0.009,0.05l0.011,0.048l0.014,0.047l0.016,0.047l0.017,0.045l0.02,0.045l0.023,0.043l0.024,0.042l0.026,0.04l0.028,0.039l0.029,0.038l0.032,0.036l0.033,0.035l0.035,0.033l0.036,0.032l0.038,0.029l0.039,0.028l0.04,0.026l0.042,0.024l0.043,0.023l0.045,0.02l0.045,0.017l0.047,0.016l0.047,0.014l0.048,0.011l0.05,0.009l0.05,0.006l0.05,0.004l0.052,0.001l8.377,0l0.052,-0.001l0.05,-0.004l0.05,-0.006l0.05,-0.009l0.048,-0.011l0.047,-0.014l0.047,-0.016l0.045,-0.017l0.045,-0.02l0.043,-0.023l0.042,-0.024l0.04,-0.026l0.039,-0.028l0.038,-0.029l0.036,-0.032l0.035,-0.033l0.033,-0.035l0.032,-0.036l0.029,-0.038l0.028,-0.039l0.026,-0.04l0.024,-0.042l0.023,-0.043l0.02,-0.045l0.018,-0.045l0.015,-0.047l0.014,-0.047l0.011,-0.048l0.009,-0.05l0.006,-0.05l0.004,-0.05l0.001,-0.052l0,-2.272l-0.001,-0.051l-0.004,-0.051l-0.006,-0.05l-0.009,-0.049l-0.011,-0.049l-0.014,-0.047l-0.015,-0.046l-0.018,-0.046l-0.02,-0.044l-0.023,-0.043l-0.024,-0.042l-0.026,-0.041l-0.028,-0.039l-0.029,-0.038l-0.032,-0.036l-0.033,-0.035l-0.035,-0.033l-0.036,-0.031l-0.038,-0.03l-0.039,-0.028l-0.04,-0.026l-0.042,-0.024l-0.043,-0.022l-0.045,-0.02l-0.045,-0.018l-0.047,-0.016l-0.047,-0.013l-0.048,-0.011l-0.05,-0.009l-0.05,-0.007l-0.05,-0.003l-0.052,-0.002l-8.377,0Z" style="fill:#008642;"/><circle cx="23.152" cy="16.41" r="0.902" style="fill:#008642;"/></g><path d="M25.147,7.891l0.103,0.004l0.099,0.007l0.099,0.008l0.103,0.012l0.1,0.014l0.098,0.016l0.099,0.019l0.099,0.022l0.097,0.024l0.092,0.025l0.094,0.027l0.099,0.033l0.092,0.032l0.089,0.034l0.092,0.038l0.087,0.038l0.09,0.042l0.089,0.044l0.084,0.045l0.083,0.046l0.083,0.048l0.083,0.052l0.082,0.054l0.078,0.055l0.076,0.055l0.077,0.059l0.074,0.06l0.075,0.063l0.073,0.065l0.066,0.062l0.068,0.065l0.068,0.07l0.069,0.074l0.062,0.071l0.059,0.069l0.061,0.076l0.06,0.078l0.057,0.079l0.054,0.078l0.05,0.075l0.051,0.081l0.052,0.088l0.046,0.083l0.047,0.088l0.043,0.088l0.039,0.084l0.041,0.093l0.036,0.088l0.035,0.092l0.034,0.096l0.028,0.088l0.03,0.098l0.026,0.098l0.023,0.094l0.021,0.098l0.019,0.098l0.017,0.1l0.014,0.098l0.011,0.099l0.009,0.104l0.007,0.103l0.003,0.099l0.002,0.089l0,9.068l-0.002,0.09l-0.003,0.098l-0.007,0.104l-0.009,0.103l-0.011,0.1l-0.014,0.098l-0.017,0.099l-0.019,0.099l-0.021,0.098l-0.023,0.094l-0.026,0.098l-0.03,0.097l-0.028,0.088l-0.034,0.096l-0.035,0.091l-0.035,0.088l-0.043,0.097l-0.039,0.084l-0.041,0.083l-0.048,0.09l-0.046,0.083l-0.051,0.086l-0.052,0.083l-0.052,0.078l-0.053,0.078l-0.056,0.076l-0.06,0.079l-0.059,0.073l-0.061,0.072l-0.065,0.073l-0.066,0.071l-0.066,0.068l-0.067,0.065l-0.072,0.067l-0.073,0.065l-0.072,0.061l-0.071,0.057l-0.08,0.062l-0.08,0.057l-0.074,0.052l-0.082,0.054l-0.08,0.05l-0.082,0.048l-0.09,0.051l-0.085,0.044l-0.081,0.041l-0.09,0.042l-0.095,0.042l-0.092,0.037l-0.085,0.032l-0.092,0.033l-0.095,0.031l-0.098,0.029l-0.096,0.026l-0.093,0.023l-0.099,0.021l-0.099,0.019l-0.098,0.017l-0.1,0.013l-0.099,0.012l-0.103,0.009l-0.104,0.007l-0.098,0.003l-0.089,0.001l-15.287,0l-0.089,-0.001l-0.099,-0.003l-0.103,-0.007l-0.104,-0.009l-0.099,-0.012l-0.099,-0.013l-0.099,-0.017l-0.098,-0.019l-0.098,-0.021l-0.094,-0.023l-0.098,-0.026l-0.098,-0.03l-0.092,-0.03l-0.092,-0.032l-0.086,-0.033l-0.092,-0.037l-0.095,-0.042l-0.091,-0.042l-0.081,-0.041l-0.084,-0.044l-0.091,-0.051l-0.082,-0.048l-0.079,-0.05l-0.082,-0.054l-0.077,-0.054l-0.077,-0.055l-0.078,-0.06l-0.073,-0.059l-0.073,-0.061l-0.073,-0.065l-0.074,-0.069l-0.064,-0.063l-0.064,-0.065l-0.069,-0.074l-0.064,-0.073l-0.061,-0.072l-0.059,-0.073l-0.06,-0.079l-0.056,-0.076l-0.054,-0.078l-0.054,-0.081l-0.049,-0.08l-0.049,-0.082l-0.051,-0.091l-0.045,-0.086l-0.039,-0.079l-0.042,-0.088l-0.042,-0.097l-0.038,-0.092l-0.033,-0.087l-0.032,-0.092l-0.03,-0.092l-0.029,-0.097l-0.027,-0.098l-0.023,-0.094l-0.021,-0.098l-0.019,-0.099l-0.016,-0.099l-0.014,-0.098l-0.011,-0.1l-0.01,-0.103l-0.006,-0.104l-0.004,-0.098l-0.001,-0.09l0,-9.068l0.001,-0.089l0.004,-0.099l0.006,-0.103l0.01,-0.104l0.011,-0.099l0.014,-0.098l0.016,-0.1l0.019,-0.098l0.021,-0.098l0.023,-0.094l0.027,-0.098l0.029,-0.098l0.03,-0.092l0.032,-0.092l0.034,-0.088l0.037,-0.092l0.041,-0.093l0.042,-0.088l0.041,-0.084l0.044,-0.084l0.051,-0.091l0.05,-0.084l0.048,-0.077l0.053,-0.079l0.053,-0.078l0.058,-0.079l0.06,-0.078l0.061,-0.076l0.059,-0.069l0.062,-0.071l0.071,-0.077l0.066,-0.067l0.065,-0.063l0.069,-0.064l0.072,-0.065l0.076,-0.063l0.076,-0.062l0.075,-0.057l0.073,-0.054l0.081,-0.056l0.082,-0.054l0.083,-0.052l0.082,-0.048l0.083,-0.046l0.084,-0.045l0.089,-0.044l0.091,-0.042l0.086,-0.038l0.092,-0.038l0.091,-0.035l0.092,-0.032l0.097,-0.031l0.093,-0.028l0.093,-0.025l0.099,-0.025l0.098,-0.021l0.098,-0.019l0.099,-0.016l0.099,-0.014l0.104,-0.012l0.099,-0.008l0.099,-0.007l0.103,-0.004l0.089,-0.001l15.287,0l0.089,0.001Zm-15.362,1.999l-0.052,0.001l-0.051,0.002l-0.051,0.003l-0.05,0.004l-0.051,0.006l-0.05,0.007l-0.049,0.008l-0.049,0.01l-0.049,0.01l-0.048,0.012l-0.047,0.013l-0.048,0.014l-0.046,0.015l-0.046,0.016l-0.046,0.018l-0.045,0.018l-0.045,0.02l-0.044,0.02l-0.043,0.022l-0.043,0.023l-0.042,0.023l-0.042,0.025l-0.041,0.025l-0.04,0.027l-0.04,0.027l-0.038,0.029l-0.039,0.029l-0.037,0.03l-0.037,0.031l-0.036,0.032l-0.035,0.032l-0.034,0.034l-0.034,0.034l-0.032,0.036l-0.032,0.035l-0.031,0.037l-0.03,0.038l-0.03,0.038l-0.028,0.039l-0.027,0.039l-0.027,0.04l-0.025,0.041l-0.025,0.042l-0.024,0.042l-0.022,0.043l-0.022,0.043l-0.02,0.044l-0.02,0.045l-0.018,0.045l-0.018,0.046l-0.016,0.046l-0.015,0.046l-0.014,0.048l-0.013,0.047l-0.012,0.049l-0.01,0.048l-0.01,0.049l-0.008,0.05l-0.007,0.049l-0.006,0.051l-0.004,0.05l-0.003,0.051l-0.002,0.051l-0.001,0.052l0,9.04l0.001,0.052l0.002,0.051l0.003,0.051l0.004,0.051l0.006,0.05l0.007,0.05l0.008,0.049l0.01,0.049l0.01,0.049l0.012,0.048l0.013,0.048l0.014,0.047l0.015,0.047l0.016,0.046l0.018,0.045l0.018,0.046l0.02,0.044l0.02,0.044l0.022,0.044l0.022,0.042l0.024,0.043l0.025,0.041l0.025,0.041l0.027,0.04l0.027,0.04l0.028,0.039l0.03,0.038l0.03,0.037l0.031,0.037l0.032,0.036l0.032,0.035l0.034,0.034l0.034,0.034l0.035,0.033l0.036,0.031l0.037,0.031l0.037,0.031l0.039,0.029l0.038,0.028l0.04,0.028l0.04,0.026l0.041,0.026l0.042,0.024l0.042,0.024l0.043,0.022l0.043,0.022l0.044,0.021l0.045,0.019l0.045,0.019l0.046,0.017l0.046,0.016l0.046,0.015l0.048,0.015l0.047,0.012l0.048,0.012l0.049,0.011l0.049,0.009l0.049,0.008l0.05,0.007l0.051,0.006l0.05,0.005l0.051,0.003l0.051,0.002l0.052,0l15.259,0l0.051,0l0.051,-0.002l0.051,-0.003l0.051,-0.005l0.05,-0.006l0.05,-0.007l0.049,-0.008l0.049,-0.009l0.049,-0.011l0.048,-0.012l0.048,-0.012l0.047,-0.015l0.047,-0.015l0.046,-0.016l0.046,-0.017l0.045,-0.019l0.044,-0.019l0.044,-0.021l0.044,-0.022l0.043,-0.022l0.042,-0.024l0.041,-0.024l0.041,-0.026l0.041,-0.026l0.039,-0.028l0.039,-0.028l0.038,-0.029l0.038,-0.031l0.036,-0.031l0.036,-0.031l0.035,-0.033l0.035,-0.034l0.033,-0.034l0.033,-0.035l0.032,-0.036l0.031,-0.037l0.03,-0.037l0.029,-0.038l0.028,-0.039l0.028,-0.04l0.026,-0.04l0.026,-0.041l0.025,-0.041l0.023,-0.043l0.023,-0.042l0.021,-0.044l0.021,-0.044l0.019,-0.044l0.019,-0.046l0.017,-0.045l0.016,-0.046l0.016,-0.047l0.014,-0.047l0.013,-0.048l0.011,-0.048l0.011,-0.049l0.009,-0.049l0.009,-0.049l0.007,-0.05l0.005,-0.05l0.005,-0.051l0.003,-0.051l0.002,-0.051l0.001,-0.052l0,-9.04l-0.001,-0.052l-0.002,-0.051l-0.003,-0.051l-0.005,-0.05l-0.005,-0.051l-0.007,-0.049l-0.009,-0.05l-0.009,-0.049l-0.011,-0.048l-0.011,-0.049l-0.013,-0.047l-0.014,-0.048l-0.016,-0.046l-0.016,-0.046l-0.017,-0.046l-0.019,-0.045l-0.019,-0.045l-0.021,-0.044l-0.021,-0.043l-0.023,-0.043l-0.023,-0.042l-0.025,-0.042l-0.026,-0.041l-0.026,-0.04l-0.028,-0.039l-0.028,-0.039l-0.029,-0.038l-0.03,-0.038l-0.031,-0.037l-0.032,-0.035l-0.033,-0.036l-0.033,-0.034l-0.035,-0.034l-0.035,-0.032l-0.036,-0.032l-0.036,-0.031l-0.038,-0.03l-0.038,-0.029l-0.039,-0.029l-0.039,-0.027l-0.041,-0.027l-0.041,-0.025l-0.041,-0.025l-0.042,-0.023l-0.043,-0.023l-0.044,-0.022l-0.044,-0.02l-0.044,-0.02l-0.045,-0.018l-0.046,-0.018l-0.046,-0.016l-0.047,-0.015l-0.047,-0.014l-0.048,-0.013l-0.048,-0.012l-0.049,-0.01l-0.049,-0.01l-0.049,-0.008l-0.05,-0.007l-0.05,-0.006l-0.051,-0.004l-0.051,-0.003l-0.051,-0.002l-0.051,-0.001l-15.259,0Z" style="fill:#008642;"/></g></svg>